<svg xmlns:dc="http://purl.org/dc/elements/1.1/" xmlns:cc="http://creativecommons.org/ns#" xmlns:rdf="http://www.w3.org/1999/02/22-rdf-syntax-ns#" xmlns:svg="http://www.w3.org/2000/svg" xmlns="http://www.w3.org/2000/svg" xmlns:xlink="http://www.w3.org/1999/xlink" id="svg346004" viewBox="0 0 1024 768" height="768px" width="1024px" version="1.1">
  <metadata id="metadata346010">
    <rdf:rdf>
      <cc:work rdf:about="">
        <dc:format>image/svg+xml</dc:format>
        <dc:type rdf:resource="http://purl.org/dc/dcmitype/StillImage"></dc:type>
      </cc:work>
    </rdf:rdf>
  </metadata>
  <defs id="defs346008"></defs>
  <linearGradient spreadMethod="pad" y2="30%" x2="-10%" y1="120%" x1="30%" id="3d_gradient2-logo-92d6451f-df60-4ad7-a344-a422d0f5208f">
    <stop id="stop345985" stop-opacity="1" stop-color="#ffffff" offset="0%"></stop>
    <stop id="stop345987" stop-opacity="1" stop-color="#000000" offset="100%"></stop>
  </linearGradient>
  <linearGradient gradientTransform="rotate(-30)" spreadMethod="pad" y2="30%" x2="-10%" y1="120%" x1="30%" id="3d_gradient3-logo-92d6451f-df60-4ad7-a344-a422d0f5208f">
    <stop id="stop345990" stop-opacity="1" stop-color="#ffffff" offset="0%"></stop>
    <stop id="stop345992" stop-opacity="1" stop-color="#cccccc" offset="50%"></stop>
    <stop id="stop345994" stop-opacity="1" stop-color="#000000" offset="100%"></stop>
  </linearGradient>
  <g id="logo-group">
    <image xlink:href="" id="container" x="272" y="144" width="480" height="480" transform="translate(0 0)" style="display: none;"></image>
    <g id="logo-center" transform="translate(24.999999999999886 0)">
      <image xlink:href="" id="icon_container" x="0" y="0" style="display: none;"></image>
      <g id="slogan" style="font-style:normal;font-weight:400;font-size:32px;line-height:1;font-family:Roboto;font-variant-ligatures:none;text-align:center;text-anchor:middle" transform="translate(0 0)"></g>
      <g id="title" style="font-style:normal;font-weight:300;font-size:72px;line-height:1;font-family:'Meedori Sans';font-variant-ligatures:none;text-align:center;text-anchor:middle" transform="translate(0 0)">
        <path id="path346013" style="font-style:normal;font-weight:300;font-size:72px;line-height:1;font-family:'Meedori Sans';font-variant-ligatures:none;text-align:center;text-anchor:middle" d="m 194.678,-13.968 q 0,3.456 -1.152,5.904 -1.152,2.376 -2.88,3.96 -1.656,1.512 -3.6,2.376 -1.872,0.792 -3.456,1.224 -1.512,0.36 -2.376,0.432 Q 180.422,0 180.926,0 h -23.688 v -3.024 h 22.68 q 3.312,-0.144 5.904,-1.368 1.08,-0.504 2.16,-1.296 1.08,-0.792 1.872,-1.944 0.864,-1.152 1.368,-2.664 0.504,-1.584 0.504,-3.672 0,-2.016 -0.504,-3.6 -0.504,-1.584 -1.368,-2.736 -0.792,-1.224 -1.872,-2.016 -1.08,-0.792 -2.16,-1.296 -2.592,-1.224 -5.904,-1.368 h -19.656 -3.024 v -3.024 h 18.72 q 3.024,-0.36 5.4,-1.656 1.008,-0.576 2.016,-1.368 1.008,-0.864 1.728,-2.016 0.792,-1.224 1.224,-2.808 0.504,-1.584 0.504,-3.6 0,-2.232 -0.504,-3.888 -0.432,-1.656 -1.224,-2.88 -0.72,-1.224 -1.728,-2.016 -1.008,-0.864 -2.016,-1.44 -2.376,-1.296 -5.4,-1.368 h -18.72 v -3.024 h 18.72 q 3.816,0.216 6.84,1.8 1.296,0.648 2.52,1.728 1.224,1.08 2.16,2.664 1.008,1.512 1.584,3.6 0.648,2.088 0.648,4.824 0,3.528 -1.152,5.832 -1.08,2.304 -2.448,3.672 -1.584,1.584 -3.528,2.448 3.384,0.504 6.048,2.16 1.152,0.72 2.232,1.728 1.08,1.008 1.944,2.376 0.864,1.368 1.368,3.168 0.504,1.8 0.504,4.104 z" stroke-width="0" stroke-linejoin="miter" stroke-miterlimit="2" fill="#5000d9" stroke="#5000d9" transform="translate(0 300.19928875) translate(255.497 63.523537999999995) scale(0.75) translate(-157.238 54.072)"></path>
        <path id="path346015" style="font-style:normal;font-weight:300;font-size:72px;line-height:1;font-family:'Meedori Sans';font-variant-ligatures:none;text-align:center;text-anchor:middle" d="m 202.89837,0 26.352,-54.072 26.352,54.072 h -2.88 l -7.05599,-14.184 H 212.83437 L 205.77837,0 Z m 11.16,-16.92 h 30.312 l -15.12,-31.032 z" stroke-width="0" stroke-linejoin="miter" stroke-miterlimit="2" fill="#4b00ca" stroke="#4b00ca" transform="translate(0 300.19928875) translate(294.9922775 63.523537999999995) scale(0.75) translate(-202.89837 54.072)"></path>
        <path id="path346017" style="font-style:normal;font-weight:300;font-size:72px;line-height:1;font-family:'Meedori Sans';font-variant-ligatures:none;text-align:center;text-anchor:middle" d="m 261.1925,0 v -54.072 h 3.024 v 51.048 h 30.024 V 0 Z" stroke-width="0" stroke-linejoin="miter" stroke-miterlimit="2" fill="#4500ba" stroke="#4500ba" transform="translate(0 300.19928875) translate(343.962875 63.523537999999995) scale(0.75) translate(-261.1925 54.072)"></path>
        <path id="path346019" style="font-style:normal;font-weight:300;font-size:72px;line-height:1;font-family:'Meedori Sans';font-variant-ligatures:none;text-align:center;text-anchor:middle" d="m 300.005,0 v -54.072 h 3.024 v 51.048 h 30.024 V 0 Z" stroke-width="0" stroke-linejoin="miter" stroke-miterlimit="2" fill="#4001ab" stroke="#4001ab" transform="translate(0 300.19928875) translate(378.32225 63.523537999999995) scale(0.75) translate(-300.005 54.072)"></path>
        <path id="path346021" style="font-style:normal;font-weight:300;font-size:72px;line-height:1;font-family:'Meedori Sans';font-variant-ligatures:none;text-align:center;text-anchor:middle" d="m 378.58287,-54.072 v 3.024 h -30.024 v 22.968 h 25.99201 v 3.168 l -25.99201,-0.072 v 21.96 h 30.024 V 0 h -33.048 v -54.072 z" stroke-width="0" stroke-linejoin="miter" stroke-miterlimit="2" fill="#3a019c" stroke="#3a019c" transform="translate(0 300.19928875) translate(417.7196525 63.523537999999995) scale(0.75) translate(-345.53487 54.072)"></path>
        <path id="path346023" style="font-style:normal;font-weight:300;font-size:72px;line-height:1;font-family:'Meedori Sans';font-variant-ligatures:none;text-align:center;text-anchor:middle" d="m 393.62862,-54.072 h 29.01601 q 3.88799,0.216 6.98399,1.8 1.296,0.648 2.52,1.728 1.296,1.08 2.232,2.664 1.008,1.512 1.584,3.6 0.648,2.088 0.648,4.824 0,2.736 -0.648,4.824 -0.648,2.016 -1.728,3.6 -1.07999,1.512 -2.44799,2.592 -1.36801,1.008 -2.73601,1.656 -3.31199,1.584 -7.488,1.8 L 434.66863,0 h -3.24001 l -13.104,-24.984 h -21.672 V 0 h -3.024 z m 3.024,26.064 h 25.99201 q 3.096,-0.144 5.47199,-1.44 1.008,-0.504 2.01601,-1.296 1.00799,-0.864 1.728,-2.088 0.79199,-1.224 1.224,-2.808 0.50399,-1.656 0.50399,-3.816 0,-2.16 -0.50399,-3.816 -0.43201,-1.656 -1.224,-2.88 -0.72001,-1.224 -1.728,-2.016 -1.00801,-0.864 -2.01601,-1.44 -2.37599,-1.296 -5.47199,-1.44 h -25.99201 z" stroke-width="0" stroke-linejoin="miter" stroke-miterlimit="2" fill="#35018d" stroke="#35018d" transform="translate(0 300.19928875) translate(459.039965 63.523537999999995) scale(0.75) translate(-393.62862 54.072)"></path>
        <path id="path346025" style="font-style:normal;font-weight:300;font-size:72px;line-height:1;font-family:'Meedori Sans';font-variant-ligatures:none;text-align:center;text-anchor:middle" d="M 485.60975,-54.072 511.96175,0 h -2.88 L 485.60975,-47.952 462.13775,0 h -2.88 z" stroke-width="0" stroke-linejoin="miter" stroke-miterlimit="2" fill="#2f017d" stroke="#2f017d" transform="translate(0 300.19928875) translate(513.5118125 63.523537999999995) scale(0.75) translate(-459.25775 54.072)"></path>
        <path id="path346027" style="font-style:normal;font-weight:300;font-size:72px;line-height:1;font-family:'Meedori Sans';font-variant-ligatures:none;text-align:center;text-anchor:middle" d="m 522.15988,0 v -54 l 41.976,45.72 V -54 h 3.16799 V 0 l -42.12,-46.296 V 0 Z" stroke-width="0" stroke-linejoin="miter" stroke-miterlimit="2" fill="#2a026e" stroke="#2a026e" transform="translate(0 300.19928875) translate(565.9384100000001 63.577538) scale(0.75) translate(-522.15988 54)"></path>
        <path id="path346029" style="font-style:normal;font-weight:300;font-size:72px;line-height:1;font-family:'Meedori Sans';font-variant-ligatures:none;text-align:center;text-anchor:middle" d="m 577.52337,0 26.352,-54.072 L 630.22738,0 h -2.88 l -7.056,-14.184 h -32.832 L 580.40337,0 Z m 11.16,-16.92 h 30.312 l -15.12,-31.032 z" stroke-width="0" stroke-linejoin="miter" stroke-miterlimit="2" fill="#24025f" stroke="#24025f" transform="translate(0 300.19928875) translate(612.7110275 63.523537999999995) scale(0.75) translate(-577.52337 54.072)"></path>
        <path id="path346031" style="font-style:normal;font-weight:300;font-size:72px;line-height:1;font-family:'Meedori Sans';font-variant-ligatures:none;text-align:center;text-anchor:middle" d="m 635.8175,0 v -54.072 h 3.024 v 51.048 h 30.024 V 0 Z" stroke-width="0" stroke-linejoin="miter" stroke-miterlimit="2" fill="#1e024f" stroke="#1e024f" transform="translate(0 300.19928875) translate(661.681625 63.523537999999995) scale(0.75) translate(-635.8175 54.072)"></path>
        <path id="path346033" style="font-style:normal;font-weight:300;font-size:72px;line-height:1;font-family:'Meedori Sans';font-variant-ligatures:none;text-align:center;text-anchor:middle" d="m 688.18062,0 v -25.488 l -21.528,-28.584 h 3.528 l 19.44001,25.848 19.51199,-25.848 h 3.384 l -21.456,28.584 V 0 Z" stroke-width="0" stroke-linejoin="miter" stroke-miterlimit="2" fill="#190240" stroke="#190240" transform="translate(0 300.19928875) translate(690.057965 63.523537999999995) scale(0.75) translate(-666.65262 54.072)"></path>
        <path id="path346035" style="font-style:normal;font-weight:300;font-size:72px;line-height:1;font-family:'Meedori Sans';font-variant-ligatures:none;text-align:center;text-anchor:middle" d="m 738.68637,0 v -51.048 h -20.44799 v -3.024 h 43.91999 v 3.024 h -20.448 V 0 h -3.024 z" stroke-width="0" stroke-linejoin="miter" stroke-miterlimit="2" fill="#140231" stroke="#140231" transform="translate(0 300.19928875) translate(733.997285 63.523537999999995) scale(0.75) translate(-718.23838 54.072)"></path>
        <path id="path346037" style="font-style:normal;font-weight:300;font-size:72px;line-height:1;font-family:'Meedori Sans';font-variant-ligatures:none;text-align:center;text-anchor:middle" d="M 773.03375,-54.072 V 0 h -2.952 v -54.072 z" stroke-width="0" stroke-linejoin="miter" stroke-miterlimit="2" fill="#0e0322" stroke="#0e0322" transform="translate(0 300.19928875) translate(778.1298125000001 63.523537999999995) scale(0.75) translate(-770.08175 54.072)"></path>
        <path id="path346039" style="font-style:normal;font-weight:300;font-size:72px;line-height:1;font-family:'Meedori Sans';font-variant-ligatures:none;text-align:center;text-anchor:middle" d="m 810.04512,0 q -5.544,0 -10.43999,-2.16 -4.89601,-2.16 -8.56801,-5.832 -3.67199,-3.672 -5.832,-8.568 -2.16,-4.896 -2.16,-10.44 0,-5.544 2.088,-10.44 2.16001,-4.968 5.832,-8.64 3.672,-3.672 8.56801,-5.832 4.96799,-2.16 10.51199,-2.16 9.72,0 16.63201,5.76 l -1.87201,1.944 q -3.24,-2.52 -6.84,-3.6 -3.59999,-1.08 -7.92,-1.08 -5.03999,0 -9.432,1.872 -4.31999,1.872 -7.55999,5.112 -3.24,3.24 -5.112,7.632 -1.87201,4.392 -1.87201,9.504 0,5.04 1.87201,9.432 1.872,4.32 5.112,7.56 3.312,3.24 7.63199,5.112 4.39201,1.8 9.36,1.8 4.03201,0 7.56001,-1.008 3.528,-1.008 6.69599,-3.312 l 2.08801,1.872 Q 819.40512,0 810.04512,0 Z" stroke-width="0" stroke-linejoin="miter" stroke-miterlimit="2" fill="#090312" stroke="#090312" transform="translate(0 300.19928875) translate(793.1023400000001 63.523537999999995) scale(0.75) translate(-783.04512 54.072)"></path>
        <path id="path346041" style="font-style:normal;font-weight:300;font-size:72px;line-height:1;font-family:'Meedori Sans';font-variant-ligatures:none;text-align:center;text-anchor:middle" d="m 858.518,-27 q 2.376,0.648 4.32,1.584 2.016,0.864 3.384,2.376 1.44,1.44 2.232,3.672 0.792,2.232 0.792,5.544 0,3.528 -1.512,6.192 -1.44,2.664 -3.888,4.392 -2.376,1.656 -5.472,2.52 -3.096,0.792 -6.408,0.72 -3.24,-0.072 -6.408,-0.936 -3.168,-0.936 -5.688,-2.736 l 2.016,-2.016 q 2.16,1.224 4.824,1.872 2.664,0.648 5.328,0.72 2.736,0.072 5.256,-0.504 2.592,-0.576 4.608,-1.872 2.016,-1.296 3.168,-3.384 1.224,-2.088 1.224,-4.968 0,-3.816 -1.656,-5.976 -1.584,-2.16 -4.176,-3.384 -2.52,-1.296 -5.76,-2.016 -3.168,-0.792 -6.336,-1.8 -2.304,-0.648 -4.104,-1.944 -1.728,-1.368 -2.952,-3.096 -1.224,-1.8 -1.872,-3.888 -0.648,-2.088 -0.648,-4.32 0,-3.528 1.44,-6.12 1.512,-2.664 3.888,-4.392 2.448,-1.728 5.544,-2.52 3.096,-0.864 6.336,-0.792 3.24,0.072 6.408,1.008 3.168,0.936 5.688,2.664 l -2.016,2.016 q -2.16,-1.224 -4.824,-1.872 -2.592,-0.72 -5.328,-0.792 -2.664,-0.072 -5.256,0.504 -2.52,0.576 -4.536,1.872 -1.944,1.296 -3.168,3.384 -1.152,2.088 -1.152,5.04 0,3.888 1.44,6.048 1.44,2.16 3.744,3.456 2.376,1.296 5.328,2.088 3.024,0.72 6.192,1.656 z" stroke-width="0" stroke-linejoin="miter" stroke-miterlimit="2" fill="#030303" stroke="#030303" transform="translate(0 300.19928875) translate(840.1610000000001 63.5193845) scale(0.75) translate(-838.79 54.077538)"></path>
      </g>
    <path id="icon" x="110" y="336" width="94.5" height="94.5" d="M858 1990 c-149 -24 -303 -85 -429 -171 -82 -55 -193 -166 -248 -248 -63 -92 -127 -234 -153 -337 -31 -127 -31 -341 0 -469 30 -121 114 -289 196 -392 205 -258 553 -402 879 -366 471 53 837 419 890 890 36 326 -108 674 -366 879 -100 79 -269 164 -387 194 -97 24 -292 34 -382 20z m205 -108 c20 -27 51 -79 69 -118 30 -64 33 -77 33 -169 0 -97 -21 -195 -45 -210 -5 -3 -63 19 -130 49 -182 84 -566 216 -626 216 -69 0 151 164 294 219 102 39 200 59 292 60 l76 1 37 -48z m191 17 c54 -15 151 -55 203 -86 l41 -24 -24 -89 c-47 -171 -143 -430 -159 -430 -4 0 -36 16 -71 36 -49 28 -64 40 -59 53 73 189 64 349 -30 505 -19 32 -35 60 -35 61 0 4 85 -13 134 -26z m407 -246 c80 -82 174 -216 164 -233 -3 -6 -12 -10 -18 -10 -7 0 -46 -22 -87 -48 -78 -51 -145 -110 -196 -174 l-30 -38 -54 37 c-30 20 -57 37 -59 39 -2 1 17 54 42 116 47 118 112 315 123 373 8 44 17 40 115 -62z m-1168 -105 c231 -66 587 -210 587 -237 0 -18 -125 -136 -190 -179 -36 -23 -111 -65 -167 -92 -57 -28 -150 -73 -208 -101 -140 -68 -246 -138 -322 -214 -35 -35 -65 -60 -67 -56 -3 4 -15 41 -26 82 -31 106 -39 315 -16 430 23 113 72 229 140 334 l57 87 36 -7 c20 -4 99 -25 176 -47z m1389 -241 c35 -94 50 -202 46 -337 -1 -70 -6 -131 -10 -135 -3 -4 -48 29 -100 72 -51 43 -132 107 -180 142 -70 52 -85 68 -78 81 32 60 262 237 295 227 5 -2 18 -24 27 -50z m-604 -96 c22 -13 -111 -265 -251 -476 -128 -192 -409 -549 -443 -562 -21 -8 -152 83 -233 161 -40 39 -100 111 -132 160 l-58 89 20 29 c35 49 119 127 183 169 34 22 157 87 273 144 117 57 245 125 284 150 82 53 170 133 200 182 l21 33 61 -35 c34 -20 68 -39 75 -44z m154 -179 c-31 -85 -39 -247 -23 -482 12 -178 4 -298 -25 -370 -14 -33 -24 -42 -69 -59 -159 -60 -408 -68 -573 -19 -45 14 -85 28 -88 30 -3 3 47 68 110 144 215 257 386 509 516 756 l71 137 53 -35 53 -35 -25 -67z m301 -141 c190 -154 171 -130 152 -185 -46 -134 -114 -246 -214 -350 -59 -61 -199 -171 -208 -163 -1 2 2 30 8 63 8 41 9 116 3 249 -14 297 -11 399 15 484 l22 72 52 -37 c29 -20 105 -80 170 -133z"/>    </g>
  </g>
</svg>