<svg version="1.1" id="Layer_1" xmlns="http://www.w3.org/2000/svg" x="0" y="0" viewBox="0 0 648 648" style="enable-background:new 0 0 648 648" xml:space="preserve"><style>.st2{fill:#fff}.st3{fill:#061922}.st4{fill:#bbc4ca}.st5{fill:#0064b1}</style><pattern y="648" width="69" height="69" patternUnits="userSpaceOnUse" id="Unnamed_Pattern" viewBox="2.13 -70.9 69 69" style="overflow:visible"><path style="fill:none" d="M2.13-70.9h69v69h-69z"/><path style="fill:#f7bc60" d="M2.13-70.9h69v69h-69z"/><path class="st2" d="M61.77-71.65c.02.07.01.13-.03.19-.05.1-.11.06-.17.13-.05.06-.1.28-.08.36-.17.06-.01.23-.02.35 0 .05-.04.11-.04.16-.01.12.02.27.07.37.1.2.27.41.44.54.19.15.36.57.61.63.18.04.38-.1.54-.14.18-.04.4.01.57-.05.22-.08.13-.34.29-.45.1-.07.29-.01.41-.05.2-.07.34-.26.38-.46.02-.08.01-.14.04-.22.04-.1.11-.16.09-.29-.01-.06-.05-.12-.06-.19-.02-.11 0-.22 0-.34 0-.2.02-.38-.08-.55-.38-.69-1.24-.93-1.97-.79-.18.03-.29.13-.44.21-.17.09-.14.17-.32.22-.08.03-.22.12-.21.22 0 .12 0 .05.01.17-.02.01-.02 0-.03-.03m-7.66.01c.02.07.01.13-.03.19-.05.1-.11.06-.17.13-.05.06-.1.28-.08.36-.17.06-.01.23-.02.35 0 .05-.04.11-.04.16-.01.12.02.27.07.37.1.2.27.41.44.54.19.15.36.57.61.63.18.04.38-.1.54-.14.18-.04.4.01.57-.05.22-.08.13-.34.29-.45.1-.07.29-.01.41-.05.2-.07.34-.26.38-.46.02-.08.01-.14.04-.22.04-.1.11-.16.09-.29-.01-.06-.05-.12-.06-.19-.02-.11 0-.22 0-.34 0-.2.02-.38-.08-.55-.38-.69-1.24-.93-1.97-.79-.18.03-.29.13-.44.21-.17.09-.14.17-.32.22-.08.03-.22.12-.21.22 0 .12 0 .05.01.17-.02.01-.02 0-.03-.03m-7.67.01c.02.07.01.13-.03.19-.05.1-.11.06-.17.13-.05.06-.1.28-.08.36-.17.06-.01.23-.02.35 0 .05-.04.11-.04.16-.01.12.02.27.07.37.1.2.27.41.44.54.19.15.36.57.61.63.18.04.38-.1.54-.14.18-.04.4.01.57-.05.22-.08.13-.34.29-.45.1-.07.29-.01.41-.05.2-.07.34-.26.38-.46.02-.08.01-.14.04-.22.04-.1.11-.16.09-.29-.01-.06-.05-.12-.06-.19-.02-.11 0-.22 0-.34 0-.2.02-.38-.08-.55-.38-.69-1.24-.93-1.97-.79-.18.03-.29.13-.44.21-.17.09-.14.17-.32.22-.08.03-.22.12-.21.22 0 .12 0 .05.01.17-.02.01-.02 0-.03-.03m-7.67.01c.02.07.01.13-.03.19-.05.1-.11.06-.17.13-.05.06-.1.28-.08.36-.17.06-.01.23-.02.35 0 .05-.04.11-.04.16-.01.12.02.27.07.37.1.2.27.41.44.54.19.15.36.57.61.63.18.04.38-.1.54-.14.18-.04.4.01.57-.05.22-.08.13-.34.29-.45.1-.07.29-.01.41-.05.2-.07.34-.26.38-.46.02-.08.01-.14.04-.22.04-.1.11-.16.09-.29-.01-.06-.05-.12-.06-.19-.02-.11 0-.22 0-.34 0-.2.02-.38-.08-.55-.38-.69-1.24-.93-1.97-.79-.18.03-.29.13-.44.21-.17.09-.14.17-.32.22-.08.03-.22.12-.21.22 0 .12 0 .05.01.17-.02.01-.02 0-.03-.03m-7.66.01c.02.07.01.13-.03.19-.05.1-.11.06-.16.13-.05.06-.1.28-.08.36-.17.06-.01.23-.02.35 0 .05-.04.11-.04.16-.01.12.02.27.07.37.1.2.27.41.43.54.19.15.36.57.61.63.18.04.38-.1.54-.14.18-.04.4.01.57-.05.22-.08.13-.34.29-.45.1-.07.29-.01.41-.05.2-.07.34-.26.38-.46.02-.08.01-.14.04-.22.04-.1.11-.16.09-.29-.01-.06-.05-.12-.06-.19-.02-.11 0-.22 0-.34 0-.2.02-.38-.08-.55-.38-.69-1.24-.93-1.97-.79-.18.03-.29.13-.44.21-.17.09-.14.17-.32.22-.08.03-.22.12-.21.22 0 .12 0 .05.01.17-.02.01-.02 0-.03-.03m-7.67.01c.02.07.01.13-.03.19-.05.1-.11.06-.17.13-.05.06-.1.28-.08.36-.17.06-.01.23-.02.35 0 .05-.04.11-.04.16-.01.12.02.27.07.37.1.2.27.41.43.54.19.15.36.57.61.63.18.04.38-.1.54-.14.18-.04.4.01.57-.05.22-.08.13-.34.29-.45.1-.07.29-.01.41-.05.2-.07.34-.26.38-.46.02-.08.01-.14.04-.22.04-.1.11-.16.09-.29-.01-.06-.05-.12-.06-.19-.02-.11 0-.22 0-.34 0-.2.02-.38-.08-.55-.38-.69-1.24-.93-1.97-.79-.18.03-.29.13-.44.21-.17.09-.14.17-.32.22-.08.03-.22.12-.21.22 0 .12 0 .05.01.17-.02.01-.02 0-.03-.03m-7.66.01c.02.07.01.13-.03.19-.05.1-.11.06-.17.13-.05.06-.1.28-.08.36-.17.06-.01.23-.02.35 0 .05-.04.11-.04.16-.01.12.02.27.07.37.1.2.27.41.44.54.19.15.36.57.61.63.18.04.38-.1.54-.14.18-.04.4.01.57-.05.22-.08.13-.34.29-.45.1-.07.29-.01.41-.05.2-.07.34-.26.38-.46.02-.08.01-.14.04-.22.04-.1.11-.16.09-.29-.01-.06-.05-.12-.06-.19-.02-.11 0-.22 0-.34 0-.2.02-.38-.08-.55-.38-.69-1.24-.93-1.97-.79-.18.03-.29.13-.44.21-.17.09-.14.17-.32.22-.08.03-.22.12-.21.22 0 .12 0 .05.01.17-.02.01-.02 0-.03-.03m-7.66.01c.02.07.01.13-.03.19-.05.1-.11.06-.17.13-.05.06-.1.28-.08.36-.17.06-.01.23-.02.35 0 .05-.04.11-.04.16-.01.12.02.27.07.37.1.2.27.41.44.54.19.15.36.57.61.63.18.04.38-.1.54-.14.18-.04.4.01.57-.05.22-.08.13-.34.29-.45.1-.07.29-.01.41-.05.2-.07.34-.26.38-.46.02-.08.01-.14.04-.22.04-.1.11-.16.09-.29-.01-.06-.05-.12-.06-.19-.02-.11 0-.22 0-.34 0-.2.02-.38-.08-.55-.38-.69-1.24-.93-1.97-.79-.18.03-.29.13-.44.21-.17.09-.14.17-.32.22-.08.03-.22.12-.21.22 0 .12 0 .05.01.17-.02.01-.02 0-.03-.03m-7.67.01c.02.07.01.13-.03.19-.05.1-.11.06-.17.13-.05.06-.1.28-.08.36-.16.05 0 .22-.01.35 0 .05-.04.11-.04.16-.01.12.02.27.07.37.1.2.27.41.44.54.19.15.36.57.61.63.18.04.38-.1.54-.14.18-.04.4.01.57-.05.22-.08.13-.34.29-.45.1-.07.29-.01.41-.05.2-.07.34-.26.38-.46.02-.08.01-.14.04-.22.04-.1.11-.16.09-.29-.01-.06-.05-.12-.06-.19-.02-.11 0-.22 0-.34 0-.2.02-.38-.08-.55-.38-.69-1.24-.93-1.97-.79-.18.03-.29.13-.44.21-.17.09-.14.17-.32.22-.08.03-.22.12-.21.22 0 .12 0 .05.01.17-.02.01-.02 0-.03-.03m68.99.01c.02.07.01.13-.03.19-.05.1-.11.06-.17.13-.05.06-.1.28-.08.36-.17.06-.01.23-.02.35 0 .05-.04.11-.04.16-.01.12.02.27.07.37.1.2.27.41.43.54.19.15.36.57.61.63.18.04.38-.1.54-.14.18-.04.4.01.57-.05.22-.08.13-.34.29-.45.1-.07.29-.01.41-.05.2-.07.34-.26.38-.46.02-.08.01-.14.04-.22.04-.1.11-.16.09-.29-.01-.06-.05-.12-.06-.19-.02-.11 0-.22 0-.34 0-.2.02-.38-.08-.55-.38-.69-1.24-.93-1.97-.79-.18.03-.29.13-.44.21-.17.09-.14.17-.32.22-.08.03-.22.12-.21.22 0 .12 0 .05.01.17-.02.01-.02 0-.03-.03"/><path class="st2" d="M.5-71.65c.02.07.01.13-.03.19-.05.1-.11.06-.17.13-.05.06-.1.28-.08.36-.17.06-.01.23-.02.35 0 .05-.04.11-.04.16-.01.12.02.27.07.37.1.2.27.41.44.54.19.15.36.57.61.63.18.04.38-.1.54-.14.18-.04.4.01.57-.05.22-.08.13-.34.29-.45.1-.07.29-.01.41-.05.2-.07.34-.26.38-.46.02-.08.01-.14.04-.22.04-.1.11-.16.09-.29-.01-.06-.05-.12-.06-.19-.02-.11 0-.22 0-.34 0-.2.02-.38-.08-.55-.38-.69-1.24-.93-1.97-.79-.18.03-.29.13-.44.21-.17.09-.14.17-.32.22-.08.03-.22.12-.21.22 0 .12 0 .05.01.17-.02.01-.02 0-.03-.03M69.44-64c.02.07.01.13-.03.19-.05.1-.11.06-.17.13-.05.06-.1.28-.08.36-.17.06-.01.23-.02.35 0 .05-.04.11-.04.16-.01.12.02.27.07.37.1.2.27.41.43.54.19.15.36.57.61.63.18.04.38-.1.54-.14.18-.04.4.01.57-.05.22-.08.13-.34.29-.45.1-.07.29-.01.41-.05.2-.07.34-.26.38-.46.02-.08.01-.14.04-.22.04-.1.11-.16.09-.29-.01-.06-.05-.12-.06-.19-.02-.11 0-.22 0-.34 0-.2.02-.38-.08-.55-.38-.69-1.24-.93-1.97-.79-.18.03-.29.13-.44.21-.17.09-.14.17-.32.22-.08.03-.22.12-.21.22 0 .12 0 .05.01.17-.02.01-.02 0-.03-.03m-7.65.01c.02.07.01.13-.03.19-.05.1-.11.06-.17.13-.05.06-.1.28-.08.36-.17.06-.01.23-.02.35 0 .05-.04.11-.04.16-.01.12.02.27.07.37.1.2.27.41.44.54.19.15.36.57.61.63.18.04.38-.1.54-.14.18-.04.4.01.57-.05.22-.08.13-.34.29-.45.1-.07.29-.01.41-.05.2-.07.34-.26.38-.46.02-.08.01-.14.04-.22.04-.1.11-.16.09-.29-.01-.06-.05-.12-.06-.19-.02-.11 0-.22 0-.34 0-.2.02-.38-.08-.55-.38-.69-1.24-.93-1.97-.79-.18.03-.29.13-.44.21-.17.09-.14.17-.32.22-.08.03-.22.12-.21.22 0 .12 0 .05.01.17-.02.01-.02 0-.03-.03m-7.66.01c.02.07.01.13-.03.19-.05.1-.11.06-.17.13-.05.06-.1.28-.08.36-.17.06-.01.23-.02.35 0 .05-.04.11-.04.16-.01.12.02.27.07.37.1.2.27.41.44.54.19.15.36.57.61.63.18.04.38-.1.54-.14.18-.04.4.01.57-.05.22-.08.13-.34.29-.45.1-.07.29-.01.41-.05.2-.07.34-.26.38-.46.02-.08.01-.14.04-.22.04-.1.11-.16.09-.29-.01-.06-.05-.12-.06-.19-.02-.11 0-.22 0-.34 0-.2.02-.38-.08-.55-.38-.69-1.24-.93-1.97-.79-.18.03-.29.13-.44.21-.17.09-.14.17-.32.22-.08.03-.22.12-.21.22 0 .12 0 .05.01.17-.02.01-.02 0-.03-.03m-7.66.01c.02.07.01.13-.03.19-.05.1-.11.06-.16.13-.05.06-.1.28-.08.36-.17.06-.01.23-.02.35 0 .05-.04.11-.05.16-.01.12.02.27.07.37.1.2.27.41.44.54.19.15.36.57.61.63.18.04.38-.1.54-.14.18-.04.4.01.57-.05.22-.08.13-.34.29-.45.1-.07.29-.01.41-.05.2-.07.34-.26.38-.46.02-.08.01-.14.04-.22.04-.1.11-.16.09-.29-.01-.06-.05-.12-.06-.19-.02-.11 0-.22 0-.34 0-.2.02-.38-.08-.55-.38-.69-1.24-.93-1.97-.79-.18.03-.29.13-.44.21-.17.09-.14.17-.32.22-.08.03-.22.12-.21.22 0 .12 0 .05.01.17-.02.01-.02 0-.03-.03M38.8-64c.02.07.01.13-.03.19-.05.1-.11.06-.17.13-.05.06-.1.28-.08.36-.17.06-.01.23-.02.35 0 .05-.04.11-.04.16-.01.12.02.27.07.37.1.2.27.41.44.54.19.15.36.57.61.63.18.04.38-.1.54-.14.18-.04.4.01.57-.05.22-.08.13-.34.29-.45.1-.07.29-.01.41-.05.2-.07.34-.26.38-.46.02-.08.01-.14.04-.22.04-.1.11-.16.09-.29-.01-.06-.05-.12-.06-.19-.02-.11 0-.22 0-.34 0-.2.02-.38-.08-.55-.38-.69-1.24-.93-1.97-.79-.18.03-.29.13-.44.21-.17.09-.14.17-.32.22-.08.03-.22.12-.21.22 0 .12 0 .05.01.17-.02.01-.02 0-.03-.03m-7.66.01c.02.07.01.13-.03.19-.05.1-.11.06-.16.13-.05.06-.1.28-.08.36-.17.06-.01.23-.02.35 0 .05-.04.11-.05.16-.01.12.02.27.07.37.1.2.27.41.44.54.19.15.36.57.61.63.18.04.38-.1.54-.14.18-.04.4.01.57-.05.22-.08.13-.34.29-.45.1-.07.29-.01.41-.05.2-.07.34-.26.38-.46.02-.08.01-.14.04-.22.04-.1.11-.16.09-.29-.01-.06-.05-.12-.06-.19-.02-.11 0-.22 0-.34 0-.2.02-.38-.08-.55-.38-.69-1.24-.93-1.97-.79-.18.03-.29.13-.44.21-.17.09-.14.17-.32.22-.08.03-.22.12-.21.22 0 .12 0 .05.01.17-.02.01-.02 0-.03-.03m-7.66.01c.02.07.01.13-.03.19-.05.1-.11.06-.17.13-.05.06-.1.28-.08.36-.17.06-.01.23-.02.35 0 .05-.04.11-.04.16-.01.12.02.27.07.37.1.2.27.41.44.54.19.15.36.57.61.63.18.04.38-.1.54-.14.18-.04.4.01.57-.05.22-.08.13-.34.29-.45.1-.07.29-.01.41-.05.2-.07.34-.26.38-.46.02-.08.01-.14.04-.22.04-.1.11-.16.09-.29-.01-.06-.05-.12-.06-.19-.02-.11 0-.22 0-.34 0-.2.02-.38-.08-.55-.38-.69-1.24-.93-1.97-.79-.18.03-.29.13-.44.21-.17.09-.14.17-.32.22-.08.03-.22.12-.21.22 0 .12 0 .05.01.17-.02.01-.02 0-.03-.03m-7.66.01c.02.07.01.13-.03.19-.05.1-.11.06-.16.13-.05.06-.1.28-.08.36-.17.06-.01.23-.02.35 0 .05-.04.11-.05.16-.01.12.02.27.07.37.1.2.27.41.44.54.19.15.36.57.61.63.18.04.38-.1.54-.14.18-.04.4.01.57-.05.22-.08.13-.34.29-.45.1-.07.29-.01.41-.05.2-.07.34-.26.38-.46.02-.08.01-.14.04-.22.04-.1.11-.16.09-.29-.01-.06-.05-.12-.06-.19-.02-.11 0-.22 0-.34 0-.2.02-.38-.08-.55-.38-.69-1.24-.93-1.97-.79-.18.03-.29.13-.44.21-.17.09-.14.17-.32.22-.08.03-.22.12-.21.22 0 .12 0 .05.01.17-.02.01-.02 0-.03-.03M8.16-64c.02.07.01.13-.03.19-.05.1-.11.06-.17.13-.05.06-.1.28-.08.36-.17.06-.01.23-.02.35 0 .05-.04.11-.04.16-.01.12.02.27.07.37.1.2.27.41.44.54.19.15.36.57.61.63.18.04.38-.1.54-.14.18-.04.4.01.57-.05.22-.08.13-.34.29-.45.1-.07.29-.01.41-.05.2-.07.34-.26.38-.46.02-.08.01-.14.04-.22.04-.1.11-.16.09-.29-.01-.06-.05-.12-.06-.19-.02-.11 0-.22 0-.34 0-.2.02-.38-.08-.55-.38-.69-1.24-.93-1.97-.79-.18.03-.29.13-.44.21-.17.09-.14.17-.32.22-.08.03-.22.12-.21.22 0 .12 0 .05.01.17-.02.01-.02 0-.03-.03M.5-64c.02.07.01.13-.03.19-.05.1-.11.06-.17.13-.05.06-.1.28-.08.36-.17.06-.01.23-.02.35 0 .05-.04.11-.04.16-.01.12.02.27.07.37.1.2.27.41.44.54.19.15.36.57.61.63.18.04.38-.1.54-.14.18-.04.4.01.57-.05.22-.08.13-.34.29-.45.1-.07.29-.01.41-.05.2-.07.34-.26.38-.46.02-.08.01-.14.04-.22.04-.1.11-.16.09-.29-.02-.07-.06-.12-.07-.19-.02-.11 0-.22 0-.34 0-.2.02-.38-.08-.55-.38-.69-1.24-.93-1.97-.79-.18.03-.29.13-.44.21-.17.09-.14.17-.32.22-.08.03-.22.12-.21.22 0 .12 0 .05.01.17-.02.01-.02 0-.03-.03m68.95 7.66c.02.07.01.13-.03.19-.05.1-.11.06-.17.13-.05.06-.1.28-.08.36-.17.06-.01.23-.02.35 0 .05-.04.11-.04.16-.01.12.02.27.07.37.1.2.27.41.43.54.19.15.36.57.61.63.18.04.38-.1.54-.14.18-.04.4.01.57-.05.22-.08.13-.34.29-.45.1-.07.29-.01.41-.05.2-.07.34-.26.38-.46.02-.08.01-.14.04-.22.04-.1.11-.16.09-.29-.01-.06-.05-.12-.06-.19-.02-.11 0-.22 0-.34 0-.2.02-.38-.08-.55-.38-.69-1.24-.93-1.97-.79-.18.03-.29.13-.44.21-.17.09-.14.17-.32.22-.08.03-.22.12-.21.22 0 .12 0 .05.01.17-.02.01-.02 0-.03-.03m-7.65.01c.02.07.01.13-.03.19-.05.1-.11.06-.17.13-.05.06-.1.28-.08.36-.17.06-.01.23-.02.35 0 .05-.04.11-.04.16-.01.12.02.27.07.37.1.2.27.41.44.54.19.15.36.57.61.63.18.04.38-.1.54-.14.18-.04.4.01.57-.05.22-.08.13-.34.29-.45.1-.07.29-.01.41-.05.2-.07.34-.26.38-.46.02-.08.01-.14.04-.22.04-.1.11-.16.09-.29-.01-.06-.05-.12-.06-.19-.02-.11 0-.22 0-.34 0-.2.02-.38-.08-.55-.38-.69-1.24-.93-1.97-.79-.18.03-.29.13-.44.21-.17.09-.14.17-.32.22-.08.03-.22.12-.21.22 0 .12 0 .05.01.17-.02.01-.02 0-.03-.03m-7.66.01c.02.07.01.13-.03.19-.05.1-.11.06-.17.13-.05.06-.1.28-.08.36-.17.06-.01.23-.02.35 0 .05-.04.11-.04.16-.01.12.02.27.07.37.1.2.27.41.44.54.19.15.36.57.61.63.18.04.38-.1.54-.14.18-.04.4.01.57-.05.22-.08.13-.34.29-.45.1-.07.29-.01.41-.05.2-.07.34-.26.38-.46.02-.08.01-.14.04-.22.04-.1.11-.16.09-.29-.01-.06-.05-.12-.06-.19-.02-.11 0-.22 0-.34 0-.2.02-.38-.08-.55-.38-.69-1.24-.93-1.97-.79-.18.03-.29.13-.44.21-.17.09-.14.17-.32.22-.08.03-.22.12-.21.22 0 .12 0 .05.01.17-.02.01-.02 0-.03-.03m-7.66.01c.02.07.01.13-.03.19-.05.1-.11.06-.16.13-.05.06-.1.28-.08.36-.17.06-.01.23-.02.35 0 .05-.04.11-.05.16-.01.12.02.27.07.37.1.2.27.41.44.54.19.15.36.57.61.63.18.04.38-.1.54-.14.18-.04.4.01.57-.05.22-.08.13-.34.29-.45.1-.07.29-.01.41-.05.2-.07.34-.26.38-.46.02-.08.01-.14.04-.22.04-.1.11-.16.09-.29-.01-.06-.05-.12-.06-.19-.02-.11 0-.22 0-.34 0-.2.02-.38-.08-.55-.38-.69-1.24-.93-1.97-.79-.18.03-.29.13-.44.21-.17.09-.14.17-.32.22-.08.03-.22.12-.21.22 0 .12 0 .05.01.17-.02.01-.02 0-.03-.03m-7.66.01c.02.07.01.13-.03.19-.05.1-.11.06-.17.13-.05.06-.1.28-.08.36-.17.06-.01.23-.02.35 0 .05-.04.11-.04.16-.01.12.02.27.07.37.1.2.27.41.44.54.19.15.36.57.61.63.18.04.38-.1.54-.14.18-.04.4.01.57-.05.22-.08.13-.34.29-.45.1-.07.29-.01.41-.05.2-.07.34-.26.38-.46.02-.08.01-.14.04-.22.04-.1.11-.16.09-.29-.01-.06-.05-.12-.06-.19-.02-.11 0-.22 0-.34 0-.2.02-.38-.08-.55-.38-.69-1.24-.93-1.97-.79-.18.03-.29.13-.44.21-.17.09-.14.17-.32.22-.08.03-.22.12-.21.22 0 .12 0 .05.01.17-.02.01-.02 0-.03-.03m-7.66.01c.02.07.01.13-.03.19-.05.1-.11.06-.16.13-.05.06-.1.28-.08.36-.17.06-.01.23-.02.35 0 .05-.04.11-.05.16-.01.12.02.27.07.37.1.2.27.41.44.54.19.15.36.57.61.63.18.04.38-.1.54-.14.18-.04.4.01.57-.05.22-.08.13-.34.29-.45.1-.07.29-.01.41-.05.2-.07.34-.26.38-.46.02-.08.01-.14.04-.22.04-.1.11-.16.09-.29-.01-.06-.05-.12-.06-.19-.02-.11 0-.22 0-.34 0-.2.02-.38-.08-.55-.38-.69-1.24-.93-1.97-.79-.18.03-.29.13-.44.21-.17.09-.14.17-.32.22-.08.03-.22.12-.21.22 0 .12 0 .05.01.17-.02.01-.02 0-.03-.03m-7.66.01c.02.07.01.13-.03.19-.05.1-.11.06-.17.13-.05.06-.1.28-.08.36-.17.06-.01.23-.02.35 0 .05-.04.11-.04.16-.01.12.02.27.07.37.1.2.27.41.44.54.19.15.36.57.61.63.18.04.38-.1.54-.14.18-.04.4.01.57-.05.22-.08.13-.34.29-.45.1-.07.29-.01.41-.05.2-.07.34-.26.38-.46.02-.08.01-.14.04-.22.04-.1.11-.16.09-.29-.01-.06-.05-.12-.06-.19-.02-.11 0-.22 0-.34 0-.2.02-.38-.08-.55-.38-.69-1.24-.93-1.97-.79-.18.03-.29.13-.44.21-.17.09-.14.17-.32.22-.08.03-.22.12-.21.22 0 .12 0 .05.01.17-.02.01-.02 0-.03-.03m-7.66.01c.02.07.01.13-.03.19-.05.1-.11.06-.16.13-.05.06-.1.28-.08.36-.17.06-.01.23-.02.35 0 .05-.04.11-.05.16-.01.12.02.27.07.37.1.2.27.41.44.54.19.15.36.57.61.63.18.04.38-.1.54-.14.18-.04.4.01.57-.05.22-.08.13-.34.29-.45.1-.07.29-.01.41-.05.2-.07.34-.26.38-.46.02-.08.01-.14.04-.22.04-.1.11-.16.09-.29-.01-.06-.05-.12-.06-.19-.02-.11 0-.22 0-.34 0-.2.02-.38-.08-.55-.38-.69-1.24-.93-1.97-.79-.18.03-.29.13-.44.21-.17.09-.14.17-.32.22-.08.03-.22.12-.21.22 0 .12 0 .05.01.17-.02.01-.02 0-.03-.03m-7.66.01c.02.07.01.13-.03.19-.05.1-.11.06-.17.13-.05.06-.1.28-.08.36-.17.06-.01.23-.02.35 0 .05-.04.11-.04.16-.01.12.02.27.07.37.1.2.27.41.44.54.19.15.36.57.61.63.18.04.38-.1.54-.14.18-.04.4.01.57-.05.22-.08.13-.34.29-.45.1-.07.29-.01.41-.05.2-.07.34-.26.38-.46.02-.08.01-.14.04-.22.04-.1.11-.16.09-.29-.01-.06-.05-.12-.06-.19-.02-.11 0-.22 0-.34 0-.2.02-.38-.08-.55-.38-.69-1.24-.93-1.97-.79-.18.03-.29.13-.44.21-.17.09-.14.17-.32.22-.08.03-.22.12-.21.22 0 .12 0 .05.01.17-.02.01-.02 0-.03-.03m-7.66.01c.02.07.01.13-.03.19-.05.1-.11.06-.17.13-.05.06-.1.28-.08.36-.17.06-.01.23-.02.35 0 .05-.04.11-.04.16-.01.12.02.27.07.37.1.2.27.41.44.54.19.15.36.57.61.63.18.04.38-.1.54-.14.18-.04.4.01.57-.05.22-.08.13-.34.29-.45.1-.07.29-.01.41-.05.2-.07.34-.26.38-.46.02-.08.01-.14.04-.22.04-.1.11-.16.09-.29-.01-.06-.05-.12-.06-.19-.02-.11 0-.22 0-.34 0-.2.02-.38-.08-.55-.38-.69-1.24-.93-1.97-.79-.18.03-.29.13-.44.21-.17.09-.14.17-.32.22-.08.03-.22.12-.21.22 0 .12 0 .05.01.17-.02.01-.02 0-.03-.03m68.94 7.66c.02.07.01.13-.03.19-.05.1-.11.06-.17.13-.05.06-.1.28-.08.36-.17.06-.01.23-.02.35 0 .05-.04.11-.04.16-.01.12.02.27.07.37.1.2.27.41.43.54.19.15.36.57.61.63.18.04.38-.1.54-.14.18-.04.4.01.57-.05.22-.08.13-.34.29-.45.1-.07.29-.01.41-.05.2-.07.34-.26.38-.46.02-.08.01-.14.04-.22.04-.1.11-.16.09-.29-.01-.06-.05-.12-.06-.19-.02-.11 0-.22 0-.34 0-.2.02-.38-.08-.55-.38-.69-1.24-.93-1.97-.79-.18.03-.29.13-.44.21-.17.09-.14.17-.32.22-.08.03-.22.12-.21.22 0 .12 0 .05.01.17-.02.01-.02 0-.03-.03m-7.65.01c.02.07.01.13-.03.19-.05.1-.11.06-.17.13-.05.06-.1.28-.08.36-.17.06-.01.23-.02.35 0 .05-.04.11-.04.16-.01.12.02.27.07.37.1.2.27.41.44.54.19.15.36.57.61.63.18.04.38-.1.54-.14.18-.04.4.01.57-.05.22-.08.13-.34.29-.45.1-.07.29-.01.41-.05.2-.07.34-.26.38-.46.02-.08.01-.14.04-.22.04-.1.11-.16.09-.29-.01-.06-.05-.12-.06-.19-.02-.11 0-.22 0-.34 0-.2.02-.38-.08-.55-.38-.69-1.24-.93-1.97-.79-.18.03-.29.13-.44.21-.17.09-.14.17-.32.22-.08.03-.22.12-.21.22 0 .12 0 .05.01.17-.02.01-.02 0-.03-.03m-7.66.01c.02.07.01.13-.03.19-.05.1-.11.06-.17.13-.05.06-.1.28-.08.36-.17.06-.01.23-.02.35 0 .05-.04.11-.04.16-.01.12.02.27.07.37.1.2.27.41.44.54.19.15.36.57.61.63.18.04.38-.1.54-.14.18-.04.4.01.57-.05.22-.08.13-.34.29-.45.1-.07.29-.01.41-.05.2-.07.34-.26.38-.46.02-.08.01-.14.04-.22.04-.1.11-.16.09-.29-.01-.06-.05-.12-.06-.19-.02-.11 0-.22 0-.34 0-.2.02-.38-.08-.55-.38-.69-1.24-.93-1.97-.79-.18.03-.29.13-.44.21-.17.09-.14.17-.32.22-.08.03-.22.12-.21.22 0 .12 0 .05.01.17-.02.01-.02 0-.03-.03m-7.66.01c.02.07.01.13-.03.19-.05.1-.11.06-.16.13-.05.06-.1.28-.08.36-.17.06-.01.23-.02.35 0 .05-.04.11-.05.16-.01.12.02.27.07.37.1.2.27.41.44.54.19.15.36.57.61.63.18.04.38-.1.54-.14.18-.04.4.01.57-.05.22-.08.13-.34.29-.45.1-.07.29-.01.41-.05.2-.07.34-.26.38-.46.02-.08.01-.14.04-.22.04-.1.11-.16.09-.29-.01-.06-.05-.12-.06-.19-.02-.11 0-.22 0-.34 0-.2.02-.38-.08-.55-.38-.69-1.24-.93-1.97-.79-.18.03-.29.13-.44.21-.17.09-.14.17-.32.22-.08.03-.22.12-.21.22 0 .12 0 .05.01.17-.02.01-.02 0-.03-.03m-7.66.01c.02.07.01.13-.03.19-.05.1-.11.06-.17.13-.05.06-.1.28-.08.36-.17.06-.01.23-.02.35 0 .05-.04.11-.04.16-.01.12.02.27.07.37.1.2.27.41.44.54.19.15.36.57.61.63.18.04.38-.1.54-.14.18-.04.4.01.57-.05.22-.08.13-.34.29-.45.1-.07.29-.01.41-.05.2-.07.34-.26.38-.46.02-.08.01-.14.04-.22.04-.1.11-.16.09-.29-.01-.06-.05-.12-.06-.19-.02-.11 0-.22 0-.34 0-.2.02-.38-.08-.55-.38-.69-1.24-.93-1.97-.79-.18.03-.29.13-.44.21-.17.09-.14.17-.32.22-.08.03-.22.12-.21.22 0 .12 0 .05.01.17-.02.01-.02 0-.03-.03m-7.66.01c.02.07.01.13-.03.19-.05.1-.11.06-.16.13-.05.06-.1.28-.08.36-.17.06-.01.23-.02.35 0 .05-.04.11-.05.16-.01.12.02.27.07.37.1.2.27.41.44.54.19.15.36.57.61.63.18.04.38-.1.54-.14.18-.04.4.01.57-.05.22-.08.13-.34.29-.45.1-.07.29-.01.41-.05.2-.07.34-.26.38-.46.02-.08.01-.14.04-.22.04-.1.11-.16.09-.29-.01-.06-.05-.12-.06-.19-.02-.11 0-.22 0-.34 0-.2.02-.38-.08-.55-.38-.69-1.24-.93-1.97-.79-.18.03-.29.13-.44.21-.17.09-.14.17-.32.22-.08.03-.22.12-.21.22 0 .12 0 .05.01.17-.02.01-.02 0-.03-.03m-7.66.01c.02.07.01.13-.03.19-.05.1-.11.06-.17.13-.05.06-.1.28-.08.36-.17.06-.01.23-.02.35 0 .05-.04.11-.04.16-.01.12.02.27.07.37.1.2.27.41.44.54.19.15.36.57.61.63.18.04.38-.1.54-.14.18-.04.4.01.57-.05.22-.08.13-.34.29-.45.1-.07.29-.01.41-.05.2-.07.34-.26.38-.46.02-.08.01-.14.04-.22.04-.1.11-.16.09-.29-.01-.06-.05-.12-.06-.19-.02-.11 0-.22 0-.34 0-.2.02-.38-.08-.55-.38-.69-1.24-.93-1.97-.79-.18.03-.29.13-.44.21-.17.09-.14.17-.32.22-.08.03-.22.12-.21.22 0 .12 0 .05.01.17-.02.01-.02 0-.03-.03m-7.66.01c.02.07.01.13-.03.19-.05.1-.11.06-.16.13-.05.06-.1.28-.08.36-.17.06-.01.23-.02.35 0 .05-.04.11-.05.16-.01.12.02.27.07.37.1.2.27.41.44.54.19.15.36.57.61.63.18.04.38-.1.54-.14.18-.04.4.01.57-.05.22-.08.13-.34.29-.45.1-.07.29-.01.41-.05.2-.07.34-.26.38-.46.02-.08.01-.14.04-.22.04-.1.11-.16.09-.29-.01-.06-.05-.12-.06-.19-.02-.11 0-.22 0-.34 0-.2.02-.38-.08-.55-.38-.69-1.24-.93-1.97-.79-.18.03-.29.13-.44.21-.17.09-.14.17-.32.22-.08.03-.22.12-.21.22 0 .12 0 .05.01.17-.02.01-.02 0-.03-.03m-7.66.01c.02.07.01.13-.03.19-.05.1-.11.06-.17.13-.05.06-.1.28-.08.36-.17.06-.01.23-.02.35 0 .05-.04.11-.04.16-.01.12.02.27.07.37.1.2.27.41.44.54.19.15.36.57.61.63.18.04.38-.1.54-.14.18-.04.4.01.57-.05.22-.08.13-.34.29-.45.1-.07.29-.01.41-.05.2-.07.34-.26.38-.46.02-.08.01-.14.04-.22.04-.1.11-.16.09-.29-.01-.06-.05-.12-.06-.19-.02-.11 0-.22 0-.34 0-.2.02-.38-.08-.55-.38-.69-1.24-.93-1.97-.79-.18.03-.29.13-.44.21-.17.09-.14.17-.32.22-.08.03-.22.12-.21.22 0 .12 0 .05.01.17-.02.01-.02 0-.03-.03M.5-48.7c.02.07.01.13-.03.19-.05.1-.11.06-.17.13-.05.06-.1.28-.08.36-.17.06-.01.23-.02.35 0 .05-.04.11-.04.16-.01.12.02.27.07.37.1.2.27.41.44.54.19.15.36.57.61.63.18.04.38-.1.54-.14.18-.04.4.01.57-.05.22-.08.13-.34.29-.45.1-.07.29-.01.41-.05.2-.07.34-.26.38-.46.02-.08.01-.14.04-.22.04-.1.11-.16.09-.29-.01-.06-.05-.12-.06-.19-.02-.11 0-.22 0-.34 0-.2.02-.38-.08-.55-.38-.69-1.24-.93-1.97-.79-.18.03-.29.13-.44.21-.17.09-.14.17-.32.22-.08.03-.22.12-.21.22 0 .12 0 .05.01.17-.02.01-.02 0-.03-.03m68.94 7.67c.02.07.01.13-.03.19-.05.1-.11.06-.17.13-.05.06-.1.28-.08.36-.17.06-.01.23-.02.35 0 .05-.04.11-.04.16-.01.12.02.27.07.37.1.2.27.41.43.54.19.15.36.57.61.63.18.04.38-.1.54-.14.18-.04.4.01.57-.05.22-.08.13-.34.29-.45.1-.07.29-.01.41-.05.2-.07.34-.26.38-.46.02-.08.01-.14.04-.22.04-.1.11-.16.09-.29-.01-.06-.05-.12-.06-.19-.02-.11 0-.22 0-.34 0-.2.02-.38-.08-.55-.38-.69-1.24-.93-1.97-.79-.18.03-.29.13-.44.21-.17.09-.14.17-.32.22-.08.03-.22.12-.21.22 0 .12 0 .05.01.17-.02.01-.02 0-.03-.03m-7.65.01c.02.07.01.13-.03.19-.05.1-.11.06-.17.13-.05.06-.1.28-.08.36-.17.06-.01.23-.02.35 0 .05-.04.11-.04.16-.01.12.02.27.07.37.1.2.27.41.44.54.19.15.36.57.61.63.18.04.38-.1.54-.14.18-.04.4.01.57-.05.22-.08.13-.34.29-.45.1-.07.29-.01.41-.05.2-.07.34-.26.38-.46.02-.08.01-.14.04-.22.04-.1.11-.16.09-.29-.01-.06-.05-.12-.06-.19-.02-.11 0-.22 0-.34 0-.2.02-.38-.08-.55-.38-.69-1.24-.93-1.97-.79-.18.03-.29.13-.44.21-.17.09-.14.17-.32.22-.08.03-.22.12-.21.22 0 .12 0 .05.01.17-.02.01-.02 0-.03-.03m-7.66.01c.02.07.01.13-.03.19-.05.1-.11.06-.17.13-.05.06-.1.28-.08.36-.17.06-.01.23-.02.35 0 .05-.04.11-.04.16-.01.12.02.27.07.37.1.2.27.41.44.54.19.15.36.57.61.63.18.04.38-.1.54-.14.18-.04.4.01.57-.05.22-.08.13-.34.29-.45.1-.07.29-.01.41-.05.2-.07.34-.26.38-.46.02-.08.01-.14.04-.22.04-.1.11-.16.09-.29-.01-.06-.05-.12-.06-.19-.02-.11 0-.22 0-.34 0-.2.02-.38-.08-.55-.38-.69-1.24-.93-1.97-.79-.18.03-.29.13-.44.21-.17.09-.14.17-.32.22-.08.03-.22.12-.21.22 0 .12 0 .05.01.17-.02.01-.02 0-.03-.03m-7.66.01c.02.07.01.13-.03.19-.05.1-.11.06-.16.13-.05.06-.1.28-.08.36-.17.06-.01.23-.02.35 0 .05-.04.11-.05.16-.01.12.02.27.07.37.1.2.27.41.44.54.19.15.36.57.61.63.18.04.38-.1.54-.14.18-.04.4.01.57-.05.22-.08.13-.34.29-.45.1-.07.29-.01.41-.05.2-.07.34-.26.38-.46.02-.08.01-.14.04-.22.04-.1.11-.16.09-.29-.01-.06-.05-.12-.06-.19-.02-.11 0-.22 0-.34 0-.2.02-.38-.08-.55-.38-.69-1.24-.93-1.97-.79-.18.03-.29.13-.44.21-.17.09-.14.17-.32.22-.08.03-.22.12-.21.22 0 .12 0 .05.01.17-.02.01-.02 0-.03-.03m-7.66.01c.02.07.01.13-.03.19-.05.1-.11.06-.17.13-.05.06-.1.28-.08.36-.17.06-.01.23-.02.35 0 .05-.04.11-.04.16-.01.12.02.27.07.37.1.2.27.41.44.54.19.15.36.57.61.63.18.04.38-.1.54-.14.18-.04.4.01.57-.05.22-.08.13-.34.29-.45.1-.07.29-.01.41-.05.2-.07.34-.26.38-.46.02-.08.01-.14.04-.22.04-.1.11-.16.09-.29-.01-.06-.05-.12-.06-.19-.02-.11 0-.22 0-.34 0-.2.02-.38-.08-.55-.38-.69-1.24-.93-1.97-.79-.18.03-.29.13-.44.21-.17.09-.14.17-.32.22-.08.03-.22.12-.21.22 0 .12 0 .05.01.17-.02.01-.02 0-.03-.03m-7.66.01c.02.07.01.13-.03.19-.05.1-.11.06-.16.13-.05.06-.1.28-.08.36-.17.06-.01.23-.02.35 0 .05-.04.11-.05.16-.01.12.02.27.07.37.1.2.27.41.44.54.19.15.36.57.61.63.18.04.38-.1.54-.14.18-.04.4.01.57-.05.22-.08.13-.34.29-.45.1-.07.29-.01.41-.05.2-.07.34-.26.38-.46.02-.08.01-.14.04-.22.04-.1.11-.16.09-.29-.01-.06-.05-.12-.06-.19-.02-.11 0-.22 0-.34 0-.2.02-.38-.08-.55-.38-.69-1.24-.93-1.97-.79-.18.03-.29.13-.44.21-.17.09-.14.17-.32.22-.08.03-.22.12-.21.22 0 .12 0 .05.01.17-.02.01-.02 0-.03-.03m-7.66.01c.02.07.01.13-.03.19-.05.1-.11.06-.17.13-.05.06-.1.28-.08.36-.17.06-.01.23-.02.35 0 .05-.04.11-.04.16-.01.12.02.27.07.37.1.2.27.41.44.54.19.15.36.57.61.63.18.04.38-.1.54-.14.18-.04.4.01.57-.05.22-.08.13-.34.29-.45.1-.07.29-.01.41-.05.2-.07.34-.26.38-.46.02-.08.01-.14.04-.22.04-.1.11-.16.09-.29-.01-.06-.05-.12-.06-.19-.02-.11 0-.22 0-.34 0-.2.02-.38-.08-.55-.38-.69-1.24-.93-1.97-.79-.18.03-.29.13-.44.21-.17.09-.14.17-.32.22-.08.03-.22.12-.21.22 0 .12 0 .05.01.17-.02.01-.02 0-.03-.03m-7.66.01c.02.07.01.13-.03.19-.05.1-.11.06-.16.13-.05.06-.1.28-.08.36-.17.06-.01.23-.02.35 0 .05-.04.11-.05.16-.01.12.02.27.07.37.1.2.27.41.44.54.19.15.36.57.61.63.18.04.38-.1.54-.14.18-.04.4.01.57-.05.22-.08.13-.34.29-.45.1-.07.29-.01.41-.05.2-.07.34-.26.38-.46.02-.08.01-.14.04-.22.04-.1.11-.16.09-.29-.01-.06-.05-.12-.06-.19-.02-.11 0-.22 0-.34 0-.2.02-.38-.08-.55-.38-.69-1.24-.93-1.97-.79-.18.03-.29.13-.44.21-.17.09-.14.17-.32.22-.08.03-.22.12-.21.22 0 .12 0 .05.01.17-.02.01-.02 0-.03-.03m-7.66.01c.02.07.01.13-.03.19-.05.1-.11.06-.17.13-.05.06-.1.28-.08.36-.17.06-.01.23-.02.35 0 .05-.04.11-.04.16-.01.12.02.27.07.37.1.2.27.41.44.54.19.15.36.57.61.63.18.04.38-.1.54-.14.18-.04.4.01.57-.05.22-.08.13-.34.29-.45.1-.07.29-.01.41-.05.2-.07.34-.26.38-.46.02-.08.01-.14.04-.22.04-.1.11-.16.09-.29-.01-.06-.05-.12-.06-.19-.02-.11 0-.22 0-.34 0-.2.02-.38-.08-.55-.38-.69-1.24-.93-1.97-.79-.18.03-.29.13-.44.21-.17.09-.14.17-.32.22-.08.03-.22.12-.21.22 0 .12 0 .05.01.17-.02.01-.02 0-.03-.03m-7.66.01c.02.07.01.13-.03.19-.05.1-.11.06-.17.13-.05.06-.1.28-.08.36-.17.06-.01.23-.02.35 0 .05-.04.11-.04.16-.01.12.02.27.07.37.1.2.27.41.44.54.19.15.36.57.61.63.18.04.38-.1.54-.14.18-.04.4.01.57-.05.22-.08.13-.34.29-.45.1-.07.29-.01.41-.05.2-.07.34-.26.38-.46.02-.08.01-.14.04-.22.04-.1.11-.16.09-.29-.01-.06-.05-.12-.06-.19-.02-.11 0-.22 0-.34 0-.2.02-.38-.08-.55-.38-.69-1.24-.93-1.97-.79-.18.03-.29.13-.44.21-.17.09-.14.17-.32.22-.08.03-.22.12-.21.22 0 .12 0 .05.01.17-.02.01-.02 0-.03-.03m68.94 7.66c.02.07.01.13-.03.19-.05.1-.11.06-.17.13-.05.06-.1.28-.08.36-.17.06-.01.23-.02.35 0 .05-.04.11-.04.16-.01.12.02.27.07.37.1.2.27.41.43.54.19.15.36.57.61.63.18.04.38-.1.54-.14.18-.04.4.01.57-.05.22-.08.13-.34.29-.45.1-.07.29-.01.41-.05.2-.07.34-.26.38-.46.02-.08.01-.14.04-.22.04-.1.11-.16.09-.29-.01-.06-.05-.12-.06-.19-.02-.11 0-.22 0-.34 0-.2.02-.38-.08-.55-.38-.69-1.24-.93-1.97-.79-.18.03-.29.13-.44.21-.17.09-.14.17-.32.22-.08.03-.22.12-.21.22 0 .12 0 .05.01.17-.02.01-.02 0-.03-.03m-7.65.01c.02.07.01.13-.03.19-.05.1-.11.06-.17.13-.05.06-.1.28-.08.36-.17.06-.01.23-.02.35 0 .05-.04.11-.04.16-.01.12.02.27.07.37.1.2.27.41.44.54.19.15.36.57.61.63.18.04.38-.1.54-.14.18-.04.4.01.57-.05.22-.08.13-.34.29-.45.1-.07.29-.01.41-.05.2-.07.34-.26.38-.46.02-.08.01-.14.04-.22.04-.1.11-.16.09-.29-.01-.06-.05-.12-.06-.19-.02-.11 0-.22 0-.34 0-.2.02-.38-.08-.55-.38-.69-1.24-.93-1.97-.79-.18.03-.29.13-.44.21-.17.09-.14.17-.32.22-.08.03-.22.12-.21.22 0 .12 0 .05.01.17-.02.01-.02 0-.03-.03m-7.66.01c.02.07.01.13-.03.19-.05.1-.11.06-.17.13-.05.06-.1.28-.08.36-.17.06-.01.23-.02.35 0 .05-.04.11-.04.16-.01.12.02.27.07.37.1.2.27.41.44.54.19.15.36.57.61.63.18.04.38-.1.54-.14.18-.04.4.01.57-.05.22-.08.13-.34.29-.45.1-.07.29-.01.41-.05.2-.07.34-.26.38-.46.02-.08.01-.14.04-.22.04-.1.11-.16.09-.29-.01-.06-.05-.12-.06-.19-.02-.11 0-.22 0-.34 0-.2.02-.38-.08-.55-.38-.69-1.24-.93-1.97-.79-.18.03-.29.13-.44.21-.17.09-.14.17-.32.22-.08.03-.22.12-.21.22 0 .12 0 .05.01.17-.02.01-.02 0-.03-.03m-7.66.01c.02.07.01.13-.03.19-.05.1-.11.06-.16.13-.05.06-.1.28-.08.36-.17.06-.01.23-.02.35 0 .05-.04.11-.05.16-.01.12.02.27.07.37.1.2.27.41.44.54.19.15.36.57.61.63.18.04.38-.1.54-.14.18-.04.4.01.57-.05.22-.08.13-.34.29-.45.1-.07.29-.01.41-.05.2-.07.34-.26.38-.46.02-.08.01-.14.04-.22.04-.1.11-.16.09-.29-.01-.06-.05-.12-.06-.19-.02-.11 0-.22 0-.34 0-.2.02-.38-.08-.55-.38-.69-1.24-.93-1.97-.79-.18.03-.29.13-.44.21-.17.09-.14.17-.32.22-.08.03-.22.12-.21.22 0 .12 0 .05.01.17-.02.01-.02 0-.03-.03m-7.66.01c.02.07.01.13-.03.19-.05.1-.11.06-.17.13-.05.06-.1.28-.08.36-.17.06-.01.23-.02.35 0 .05-.04.11-.04.16-.01.12.02.27.07.37.1.2.27.41.44.54.19.15.36.57.61.63.18.04.38-.1.54-.14.18-.04.4.01.57-.05.22-.08.13-.34.29-.45.1-.07.29-.01.41-.05.2-.07.34-.26.38-.46.02-.08.01-.14.04-.22.04-.1.11-.16.09-.29-.01-.06-.05-.12-.06-.19-.02-.11 0-.22 0-.34 0-.2.02-.38-.08-.55-.38-.69-1.24-.93-1.97-.79-.18.03-.29.13-.44.21-.17.09-.14.17-.32.22-.08.03-.22.12-.21.22 0 .12 0 .05.01.17-.02.01-.02 0-.03-.03m-7.66.01c.02.07.01.13-.03.19-.05.1-.11.06-.16.13-.05.06-.1.28-.08.36-.17.06-.01.23-.02.35 0 .05-.04.11-.05.16-.01.12.02.27.07.37.1.2.27.41.44.54.19.15.36.57.61.63.18.04.38-.1.54-.14.18-.04.4.01.57-.05.22-.08.13-.34.29-.45.1-.07.29-.01.41-.05.2-.07.34-.26.38-.46.02-.08.01-.14.04-.22.04-.1.11-.16.09-.29-.01-.06-.05-.12-.06-.19-.02-.11 0-.22 0-.34 0-.2.02-.38-.08-.55-.38-.69-1.24-.93-1.97-.79-.18.03-.29.13-.44.21-.17.09-.14.17-.32.22-.08.03-.22.12-.21.22 0 .12 0 .05.01.17-.02.01-.02 0-.03-.03m-7.66.01c.02.07.01.13-.03.19-.05.1-.11.06-.17.13-.05.06-.1.28-.08.36-.17.06-.01.23-.02.35 0 .05-.04.11-.04.16-.01.12.02.27.07.37.1.2.27.41.44.54.19.15.36.57.61.63.18.04.38-.1.54-.14.18-.04.4.01.57-.05.22-.08.13-.34.29-.45.1-.07.29-.01.41-.05.2-.07.34-.26.38-.46.02-.08.01-.14.04-.22.04-.1.11-.16.09-.29-.01-.06-.05-.12-.06-.19-.02-.11 0-.22 0-.34 0-.2.02-.38-.08-.55-.38-.69-1.24-.93-1.97-.79-.18.03-.29.13-.44.21-.17.09-.14.17-.32.22-.08.03-.22.12-.21.22 0 .12 0 .05.01.17-.02.01-.02 0-.03-.03m-7.66.01c.02.07.01.13-.03.19-.05.1-.11.06-.16.13-.05.06-.1.28-.08.36-.17.06-.01.23-.02.35 0 .05-.04.11-.05.16-.01.12.02.27.07.37.1.2.27.41.44.54.19.15.36.57.61.63.18.04.38-.1.54-.14.18-.04.4.01.57-.05.22-.08.13-.34.29-.45.1-.07.29-.01.41-.05.2-.07.34-.26.38-.46.02-.08.01-.14.04-.22.04-.1.11-.16.09-.29-.01-.06-.05-.12-.06-.19-.02-.11 0-.22 0-.34 0-.2.02-.38-.08-.55-.38-.69-1.24-.93-1.97-.79-.18.03-.29.13-.44.21-.17.09-.14.17-.32.22-.08.03-.22.12-.21.22 0 .12 0 .05.01.17-.02.01-.02 0-.03-.03m-7.66.01c.02.07.01.13-.03.19-.05.1-.11.06-.17.13-.05.06-.1.28-.08.36-.17.06-.01.23-.02.35 0 .05-.04.11-.04.16-.01.12.02.27.07.37.1.2.27.41.44.54.19.15.36.57.61.63.18.04.38-.1.54-.14.18-.04.4.01.57-.05.22-.08.13-.34.29-.45.1-.07.29-.01.41-.05.2-.07.34-.26.38-.46.02-.08.01-.14.04-.22.04-.1.11-.16.09-.29-.01-.06-.05-.12-.06-.19-.02-.11 0-.22 0-.34 0-.2.02-.38-.08-.55-.38-.69-1.24-.93-1.97-.79-.18.03-.29.13-.44.21-.17.09-.14.17-.32.22-.08.03-.22.12-.21.22 0 .12 0 .05.01.17-.02.01-.02 0-.03-.03m-7.66.01c.02.07.01.13-.03.19-.05.1-.11.06-.17.13-.05.06-.1.28-.08.36-.17.06-.01.23-.02.35 0 .05-.04.11-.04.16-.01.12.02.27.07.37.1.2.27.41.44.54.19.15.36.57.61.63.18.04.38-.1.54-.14.18-.04.4.01.57-.05.22-.08.13-.34.29-.45.1-.07.29-.01.41-.05.2-.07.34-.26.38-.46.02-.08.01-.14.04-.22.04-.1.11-.16.09-.29-.01-.06-.05-.12-.06-.19-.02-.11 0-.22 0-.34 0-.2.02-.38-.08-.55-.38-.69-1.24-.93-1.97-.79-.18.03-.29.13-.44.21-.17.09-.14.17-.32.22-.08.03-.22.12-.21.22 0 .12 0 .05.01.17-.02.01-.02 0-.03-.03m68.94 7.66c.02.07.01.13-.03.19-.05.1-.11.06-.17.13-.05.06-.1.28-.08.36-.16.06 0 .23-.01.35 0 .05-.04.11-.04.16-.01.12.02.27.07.37.1.2.27.41.43.54.19.15.36.57.61.63.18.04.38-.1.54-.14.18-.04.4.01.57-.05.22-.08.13-.34.29-.45.1-.07.29-.01.41-.05.2-.07.34-.26.38-.46.02-.08.01-.14.04-.22.04-.1.11-.16.09-.29-.01-.06-.05-.12-.06-.19-.02-.11 0-.22 0-.34 0-.2.02-.38-.08-.55-.38-.69-1.24-.93-1.97-.79-.18.03-.29.13-.44.21-.17.09-.14.17-.32.22-.08.03-.22.12-.21.22 0 .12 0 .05.01.17-.02.01-.02 0-.03-.03m-7.66.01c.02.07.01.13-.03.19-.05.1-.11.06-.17.13-.05.06-.1.28-.08.36-.17.06-.01.23-.02.35 0 .05-.04.11-.04.16-.01.12.02.27.07.37.1.2.27.41.44.54.19.15.36.57.61.63.18.04.38-.1.54-.14.18-.04.4.01.57-.05.22-.08.13-.34.29-.45.1-.07.29-.01.41-.05.2-.07.34-.26.38-.46.02-.08.01-.14.04-.22.04-.1.11-.16.09-.29-.01-.06-.05-.12-.06-.19-.02-.11 0-.22 0-.34 0-.2.02-.38-.08-.55-.38-.69-1.24-.93-1.97-.79-.18.03-.29.13-.44.21-.17.09-.14.17-.32.22-.08.03-.22.12-.21.22 0 .12 0 .05.01.17-.02.01-.02 0-.03-.03m-7.66.01c.02.07.01.13-.03.19-.05.1-.11.06-.17.13-.05.06-.1.28-.08.36-.17.06-.01.23-.02.35 0 .05-.04.11-.04.16-.01.12.02.27.07.37.1.2.27.41.44.54.19.15.36.57.61.63.18.04.38-.1.54-.14.18-.04.4.01.57-.05.22-.08.13-.34.29-.45.1-.07.29-.01.41-.05.2-.07.34-.26.38-.46.02-.08.01-.14.04-.22.04-.1.11-.16.09-.29-.01-.06-.05-.12-.06-.19-.02-.11 0-.22 0-.34 0-.2.02-.38-.08-.55-.38-.69-1.24-.93-1.97-.79-.18.03-.29.13-.44.21-.17.09-.14.17-.32.22-.08.03-.22.12-.21.22 0 .12 0 .05.01.17-.02.01-.02 0-.03-.03m-7.66.01c.02.07.01.13-.03.19-.05.1-.11.06-.16.13-.05.06-.1.28-.08.36-.17.06-.01.23-.02.35 0 .05-.04.11-.05.16-.01.12.02.27.07.37.1.2.27.41.44.54.19.15.36.57.61.63.18.04.38-.1.54-.14.18-.04.4.01.57-.05.22-.08.13-.34.29-.45.1-.07.29-.01.41-.05.2-.07.34-.26.38-.46.02-.08.01-.14.04-.22.04-.1.11-.16.09-.29-.01-.06-.05-.12-.06-.19-.02-.11 0-.22 0-.34 0-.2.02-.38-.08-.55-.38-.69-1.24-.93-1.97-.79-.18.03-.29.13-.44.21-.17.09-.14.17-.32.22-.08.03-.22.12-.21.22 0 .12 0 .05.01.17-.02.01-.02 0-.03-.03m-7.66.01c.02.07.01.13-.03.19-.05.1-.11.06-.17.13-.05.06-.1.28-.08.36-.17.06-.01.23-.02.35 0 .05-.04.11-.04.16-.01.12.02.27.07.37.1.2.27.41.44.54.19.15.36.57.61.63.18.04.38-.1.54-.14.18-.04.4.01.57-.05.22-.08.13-.34.29-.45.1-.07.29-.01.41-.05.2-.07.34-.26.38-.46.02-.08.01-.14.04-.22.04-.1.11-.16.09-.29-.01-.06-.05-.12-.06-.19-.02-.11 0-.22 0-.34 0-.2.02-.38-.08-.55-.38-.69-1.24-.93-1.97-.79-.18.03-.29.13-.44.21-.17.09-.14.17-.32.22-.08.03-.22.12-.21.22 0 .12 0 .05.01.17-.02.01-.02 0-.03-.03m-7.66.01c.02.07.01.13-.03.19-.05.1-.11.06-.16.13-.05.06-.1.28-.08.36-.17.06-.01.23-.02.35 0 .05-.04.11-.05.16-.01.12.02.27.07.37.1.2.27.41.44.54.19.15.36.57.61.63.18.04.38-.1.54-.14.18-.04.4.01.57-.05.22-.08.13-.34.29-.45.1-.07.29-.01.41-.05.2-.07.34-.26.38-.46.02-.08.01-.14.04-.22.04-.1.11-.16.09-.29-.01-.06-.05-.12-.06-.19-.02-.11 0-.22 0-.34 0-.2.02-.38-.08-.55-.38-.69-1.24-.93-1.97-.79-.18.03-.29.13-.44.21-.17.09-.14.17-.32.22-.08.03-.22.12-.21.22 0 .12 0 .05.01.17-.02.01-.02 0-.03-.03m-7.66.01c.02.07.01.13-.03.19-.05.1-.11.06-.17.13-.05.06-.1.28-.08.36-.17.06-.01.23-.02.35 0 .05-.04.11-.04.16-.01.12.02.27.07.37.1.2.27.41.44.54.19.15.36.57.61.63.18.04.38-.1.54-.14.18-.04.4.01.57-.05.22-.08.13-.34.29-.45.1-.07.29-.01.41-.05.2-.07.34-.26.38-.46.02-.08.01-.14.04-.22.04-.1.11-.16.09-.29-.01-.06-.05-.12-.06-.19-.02-.11 0-.22 0-.34 0-.2.02-.38-.08-.55-.38-.69-1.24-.93-1.97-.79-.18.03-.29.13-.44.21-.17.09-.14.17-.32.22-.08.03-.22.12-.21.22 0 .12 0 .05.01.17-.02.01-.02 0-.03-.03m-7.66.01c.02.07.01.13-.03.19-.05.1-.11.06-.16.13-.05.06-.1.28-.08.36-.17.06-.01.23-.02.35 0 .05-.04.11-.05.16-.01.12.02.27.07.37.1.2.27.41.44.54.19.15.36.57.61.63.18.04.38-.1.54-.14.18-.04.4.01.57-.05.22-.08.13-.34.29-.45.1-.07.29-.01.41-.05.2-.07.34-.26.38-.46.02-.08.01-.14.04-.22.04-.1.11-.16.09-.29-.01-.06-.05-.12-.06-.19-.02-.11 0-.22 0-.34 0-.2.02-.38-.08-.55-.38-.69-1.24-.93-1.97-.79-.18.03-.29.13-.44.21-.17.09-.14.17-.32.22-.08.03-.22.12-.21.22 0 .12 0 .05.01.17-.02.01-.02 0-.03-.03m-7.66.01c.02.07.01.13-.03.19-.05.1-.11.06-.17.13-.05.06-.1.28-.08.36-.16.06 0 .23-.01.35 0 .05-.04.11-.04.16-.01.12.02.27.07.37.1.2.27.41.44.54.19.15.36.57.61.63.18.04.38-.1.54-.14.18-.04.4.01.57-.05.22-.08.13-.34.29-.45.1-.07.29-.01.41-.05.2-.07.34-.26.38-.46.02-.08.01-.14.04-.22.04-.1.11-.16.09-.29-.01-.06-.05-.12-.06-.19-.02-.11 0-.22 0-.34 0-.2.02-.38-.08-.55-.38-.69-1.24-.93-1.97-.79-.18.03-.29.13-.44.21-.17.09-.14.17-.32.22-.08.03-.22.12-.21.22 0 .12 0 .05.01.17-.02.01-.02 0-.03-.03m-7.67.01c.02.07.01.13-.03.19-.05.1-.11.06-.17.13-.05.06-.1.28-.08.36-.16.06 0 .23-.01.35 0 .05-.04.11-.04.16-.01.12.02.27.07.37.1.2.27.41.44.54.19.15.36.57.61.63.18.04.38-.1.54-.14.18-.04.4.01.57-.05.22-.08.13-.34.29-.45.1-.07.29-.01.41-.05.2-.07.34-.26.38-.46.02-.08.01-.14.04-.22.04-.1.11-.16.09-.29-.01-.06-.05-.12-.06-.19-.02-.11 0-.22 0-.34 0-.2.02-.38-.08-.55-.38-.69-1.24-.93-1.97-.79-.18.03-.29.13-.44.21-.17.09-.14.17-.32.22-.08.03-.22.12-.21.22 0 .12 0 .05.01.17-.02.01-.02 0-.03-.03m68.93 7.67c.02.07.01.13-.03.19-.05.1-.11.06-.17.13-.05.06-.1.28-.08.36-.17.06-.01.23-.02.35 0 .05-.04.11-.04.16-.01.12.02.27.07.37.1.2.27.41.43.54.19.15.36.57.61.63.18.04.38-.1.54-.14.18-.04.4.01.57-.05.22-.08.13-.34.29-.45.1-.07.29-.01.41-.05.2-.07.34-.26.38-.46.02-.08.01-.14.04-.22.04-.1.11-.16.09-.29-.01-.06-.05-.12-.06-.19-.02-.11 0-.22 0-.34 0-.2.02-.38-.08-.55-.38-.69-1.24-.93-1.97-.79-.18.03-.29.13-.44.21-.17.09-.14.17-.32.22-.08.03-.22.12-.21.22 0 .12 0 .05.01.17-.02.01-.02 0-.03-.03m-7.65.01c.02.07.01.13-.03.19-.05.1-.11.06-.17.13-.05.06-.1.28-.08.36-.17.06-.01.23-.02.35 0 .05-.04.11-.04.16-.01.12.02.27.07.37.1.2.27.41.44.54.19.15.36.57.61.63.18.04.38-.1.54-.14.18-.04.4.01.57-.05.22-.08.13-.34.29-.45.1-.07.29-.01.41-.05.2-.07.34-.26.38-.46.02-.08.01-.14.04-.22.04-.1.11-.16.09-.29-.01-.06-.05-.12-.06-.19-.02-.11 0-.22 0-.34 0-.2.02-.38-.08-.55-.38-.69-1.24-.93-1.97-.79-.18.03-.29.13-.44.21-.17.09-.14.17-.32.22-.08.03-.22.12-.21.22 0 .12 0 .05.01.17-.02.01-.02 0-.03-.03m-7.66.01c.02.07.01.13-.03.19-.05.1-.11.06-.17.13-.05.06-.1.28-.08.36-.17.06-.01.23-.02.35 0 .05-.04.11-.04.16-.01.12.02.27.07.37.1.2.27.41.44.54.19.15.36.57.61.63.18.04.38-.1.54-.14.18-.04.4.01.57-.05.22-.08.13-.34.29-.45.1-.07.29-.01.41-.05.2-.07.34-.26.38-.46.02-.08.01-.14.04-.22.04-.1.11-.16.09-.29-.01-.06-.05-.12-.06-.19-.02-.11 0-.22 0-.34 0-.2.02-.38-.08-.55-.38-.69-1.24-.93-1.97-.79-.18.03-.29.13-.44.21-.17.09-.14.17-.32.22-.08.03-.22.12-.21.22 0 .12 0 .05.01.17-.02.01-.02 0-.03-.03m-7.66.01c.02.07.01.13-.03.19-.05.1-.11.06-.16.13-.05.06-.1.28-.08.36-.17.06-.01.23-.02.35 0 .05-.04.11-.05.16-.01.12.02.27.07.37.1.2.27.41.44.54.19.15.36.57.61.63.18.04.38-.1.54-.14.18-.04.4.01.57-.05.22-.08.13-.34.29-.45.1-.07.29-.01.41-.05.2-.07.34-.26.38-.46.02-.08.01-.14.04-.22.04-.1.11-.16.09-.29-.01-.06-.05-.12-.06-.19-.02-.11 0-.22 0-.34 0-.2.02-.38-.08-.55-.38-.69-1.24-.93-1.97-.79-.18.03-.29.13-.44.21-.17.09-.14.17-.32.22-.08.03-.22.12-.21.22 0 .12 0 .05.01.17-.02.01-.02 0-.03-.03m-7.66.01c.02.07.01.13-.03.19-.05.1-.11.06-.17.13-.05.06-.1.28-.08.36-.17.06-.01.23-.02.35 0 .05-.04.11-.04.16-.01.12.02.27.07.37.1.2.27.41.44.54.19.15.36.57.61.63.18.04.38-.1.54-.14.18-.04.4.01.57-.05.22-.08.13-.34.29-.45.1-.07.29-.01.41-.05.2-.07.34-.26.38-.46.02-.08.01-.14.04-.22.04-.1.11-.16.09-.29-.01-.06-.05-.12-.06-.19-.02-.11 0-.22 0-.34 0-.2.02-.38-.08-.55-.38-.69-1.24-.93-1.97-.79-.18.03-.29.13-.44.21-.17.09-.14.17-.32.22-.08.03-.22.12-.21.22 0 .12 0 .05.01.17-.02.01-.02 0-.03-.03m-7.66.01c.02.07.01.13-.03.19-.05.1-.11.06-.16.13-.05.06-.1.28-.08.36-.17.06-.01.23-.02.35 0 .05-.04.11-.05.16-.01.12.02.27.07.37.1.2.27.41.44.54.19.15.36.57.61.63.18.04.38-.1.54-.14.18-.04.4.01.57-.05.22-.08.13-.34.29-.45.1-.07.29-.01.41-.05.2-.07.34-.26.38-.46.02-.08.01-.14.04-.22.04-.1.11-.16.09-.29-.01-.06-.05-.12-.06-.19-.02-.11 0-.22 0-.34 0-.2.02-.38-.08-.55-.38-.69-1.24-.93-1.97-.79-.18.03-.29.13-.44.21-.17.09-.14.17-.32.22-.08.03-.22.12-.21.22 0 .12 0 .05.01.17-.02.01-.02 0-.03-.03m-7.66.01c.02.07.01.13-.03.19-.05.1-.11.06-.17.13-.05.06-.1.28-.08.36-.17.06-.01.23-.02.35 0 .05-.04.11-.04.16-.01.12.02.27.07.37.1.2.27.41.44.54.19.15.36.57.61.63.18.04.38-.1.54-.14.18-.04.4.01.57-.05.22-.08.13-.34.29-.45.1-.07.29-.01.41-.05.2-.07.34-.26.38-.46.02-.08.01-.14.04-.22.04-.1.11-.16.09-.29-.01-.06-.05-.12-.06-.19-.02-.11 0-.22 0-.34 0-.2.02-.38-.08-.55-.38-.69-1.24-.93-1.97-.79-.18.03-.29.13-.44.21-.17.09-.14.17-.32.22-.08.03-.22.12-.21.22 0 .12 0 .05.01.17-.02.01-.02 0-.03-.03m-7.66.01c.02.07.01.13-.03.19-.05.1-.11.06-.16.13-.05.06-.1.28-.08.36-.17.06-.01.23-.02.35 0 .05-.04.11-.05.16-.01.12.02.27.07.37.1.2.27.41.44.54.19.15.36.57.61.63.18.04.38-.1.54-.14.18-.04.4.01.57-.05.22-.08.13-.34.29-.45.1-.07.29-.01.41-.05.2-.07.34-.26.38-.46.02-.08.01-.14.04-.22.04-.1.11-.16.09-.29-.01-.06-.05-.12-.06-.19-.02-.11 0-.22 0-.34 0-.2.02-.38-.08-.55-.38-.69-1.24-.93-1.97-.79-.18.03-.29.13-.44.21-.17.09-.14.17-.32.22-.08.03-.22.12-.21.22 0 .12 0 .05.01.17-.02.01-.02 0-.03-.03m-7.66.01c.02.07.01.13-.03.19-.05.1-.11.06-.17.13-.05.06-.1.28-.08.36-.17.06-.01.23-.02.35 0 .05-.04.11-.04.16-.01.12.02.27.07.37.1.2.27.41.44.54.19.15.36.57.61.63.18.04.38-.1.54-.14.18-.04.4.01.57-.05.22-.08.13-.34.29-.45.1-.07.29-.01.41-.05.2-.07.34-.26.38-.46.02-.08.01-.14.04-.22.04-.1.11-.16.09-.29-.01-.06-.05-.12-.06-.19-.02-.11 0-.22 0-.34 0-.2.02-.38-.08-.55-.38-.69-1.24-.93-1.97-.79-.18.03-.29.13-.44.21-.17.09-.14.17-.32.22-.08.03-.22.12-.21.22 0 .12 0 .05.01.17-.02.01-.02 0-.03-.03m-7.66.01c.02.07.01.13-.03.19-.05.1-.11.06-.17.13-.05.06-.1.28-.08.36-.17.06-.01.23-.02.35 0 .05-.04.11-.04.16-.01.12.02.27.07.37.1.2.27.41.44.54.19.15.36.57.61.63.18.04.38-.1.54-.14.18-.04.4.01.57-.05.22-.08.13-.34.29-.45.1-.07.29-.01.41-.05.2-.07.34-.26.38-.46.02-.08.01-.14.04-.22.04-.1.11-.16.09-.29-.01-.06-.05-.12-.06-.19-.02-.11 0-.22 0-.34 0-.2.02-.38-.08-.55-.38-.69-1.24-.93-1.97-.79-.18.03-.29.13-.44.21-.17.09-.14.17-.32.22-.08.03-.22.12-.21.22 0 .12 0 .05.01.17-.02.01-.02 0-.03-.03m68.94 7.66c.02.07.01.13-.03.19-.05.1-.11.06-.17.13-.05.06-.1.28-.08.36-.16.06 0 .23-.01.35 0 .05-.04.11-.04.16-.01.12.02.27.07.37.1.2.27.41.43.54.19.15.36.57.61.63.18.04.38-.1.54-.14.18-.04.4.01.57-.05.22-.08.13-.34.29-.45.1-.07.29-.01.41-.05.2-.07.34-.26.38-.46.02-.08.01-.14.04-.22.04-.1.11-.16.09-.29-.01-.06-.05-.12-.06-.19-.02-.11 0-.22 0-.34 0-.2.02-.38-.08-.55-.38-.69-1.24-.93-1.97-.79-.18.03-.29.13-.44.21-.17.09-.14.17-.32.22-.08.03-.22.12-.21.22 0 .12 0 .05.01.17-.02.01-.02 0-.03-.03m-7.66.01c.02.07.01.13-.03.19-.05.1-.11.06-.17.13-.05.06-.1.28-.08.36-.17.06-.01.23-.02.35 0 .05-.04.11-.04.16-.01.12.02.27.07.37.1.2.27.41.44.54.19.15.36.57.61.63.18.04.38-.1.54-.14.18-.04.4.01.57-.05.22-.08.13-.34.29-.45.1-.07.29-.01.41-.05.2-.07.34-.26.38-.46.02-.08.01-.14.04-.22.04-.1.11-.16.09-.29-.01-.06-.05-.12-.06-.19-.02-.11 0-.22 0-.34 0-.2.02-.38-.08-.55-.38-.69-1.24-.93-1.97-.79-.18.03-.29.13-.44.21-.17.09-.14.17-.32.22-.08.03-.22.12-.21.22 0 .12 0 .05.01.17-.02.01-.02 0-.03-.03m-7.66.01c.02.07.01.13-.03.19-.05.1-.11.06-.17.13-.05.06-.1.28-.08.36-.17.06-.01.23-.02.35 0 .05-.04.11-.04.16-.01.12.02.27.07.37.1.2.27.41.44.54.19.15.36.57.61.63.18.04.38-.1.54-.14.18-.04.4.01.57-.05.22-.08.13-.34.29-.45.1-.07.29-.01.41-.05.2-.07.34-.26.38-.46.01-.08 0-.15.03-.22.04-.1.11-.16.09-.29-.01-.06-.05-.12-.06-.19-.02-.11 0-.22 0-.34 0-.2.02-.38-.08-.55-.38-.69-1.24-.93-1.97-.79-.18.03-.29.13-.44.21-.17.09-.14.17-.32.22-.08.03-.22.12-.21.22 0 .12 0 .05.01.17-.02.01-.02 0-.03-.03m-7.65.01c.02.07.01.13-.03.19-.05.1-.11.06-.16.13-.05.06-.1.28-.08.36-.17.06-.01.23-.02.35 0 .05-.04.11-.05.16-.01.12.02.27.07.37.1.2.27.41.44.54.19.15.36.57.61.63.18.04.38-.1.54-.14.18-.04.4.01.57-.05.22-.08.13-.34.29-.45.1-.07.29-.01.41-.05.2-.07.34-.26.38-.46.02-.08.01-.14.04-.22.04-.1.11-.16.09-.29-.01-.06-.05-.12-.06-.19-.02-.11 0-.22 0-.34 0-.2.02-.38-.08-.55-.38-.69-1.24-.93-1.97-.79-.18.03-.29.13-.44.21-.17.09-.14.17-.32.22-.08.03-.22.12-.21.22 0 .12 0 .05.01.17-.02.01-.02 0-.03-.03m-7.66.01c.02.07.01.13-.03.19-.05.1-.11.06-.17.13-.05.06-.1.28-.08.36-.17.06-.01.23-.02.35 0 .05-.04.11-.04.16-.01.12.02.27.07.37.1.2.27.41.44.54.19.15.36.57.61.63.18.04.38-.1.54-.14.18-.04.4.01.57-.05.22-.08.13-.34.29-.45.1-.07.29-.01.41-.05.2-.07.34-.26.38-.46.01-.08 0-.15.03-.22.04-.1.11-.16.09-.29-.01-.06-.05-.12-.06-.19-.02-.11 0-.22 0-.34 0-.2.02-.38-.08-.55-.38-.69-1.24-.93-1.97-.79-.18.03-.29.13-.44.21-.17.09-.14.17-.32.22-.08.03-.22.12-.21.22 0 .12 0 .05.01.17-.02.01-.02 0-.03-.03m-7.65.01c.02.07.01.13-.03.19-.05.1-.11.06-.16.13-.05.06-.1.28-.08.36-.17.06-.01.23-.02.35 0 .05-.04.11-.05.16-.01.12.02.27.07.37.1.2.27.41.44.54.19.15.36.57.61.63.18.04.38-.1.54-.14.18-.04.4.01.57-.05.22-.08.13-.34.29-.45.1-.07.29-.01.41-.05.2-.07.34-.26.38-.46.02-.08.01-.14.04-.22.04-.1.11-.16.09-.29-.01-.06-.05-.12-.06-.19-.02-.11 0-.22 0-.34 0-.2.02-.38-.08-.55-.38-.69-1.24-.93-1.97-.79-.18.03-.29.13-.44.21-.17.09-.14.17-.32.22-.08.03-.22.12-.21.22 0 .12 0 .05.01.17-.02.01-.02 0-.03-.03m-7.66.01c.02.07.01.13-.03.19-.05.1-.11.06-.17.13-.05.06-.1.28-.08.36-.17.06-.01.23-.02.35 0 .05-.04.11-.04.16-.01.12.02.27.07.37.1.2.27.41.44.54.19.15.36.57.61.63.18.04.38-.1.54-.14.18-.04.4.01.57-.05.22-.08.13-.34.29-.45.1-.07.29-.01.41-.05.2-.07.34-.26.38-.46.02-.08.01-.14.04-.22.04-.1.11-.16.09-.29-.01-.06-.05-.12-.06-.19-.02-.11 0-.22 0-.34 0-.2.02-.38-.08-.55-.38-.69-1.24-.93-1.97-.79-.18.03-.29.13-.44.21-.17.09-.14.17-.32.22-.08.03-.22.12-.21.22 0 .12 0 .05.01.17-.02.01-.02 0-.03-.03m-7.66.01c.02.07.01.13-.03.19-.05.1-.11.06-.16.13-.05.06-.1.28-.08.36-.17.06-.01.23-.02.35 0 .05-.04.11-.05.16-.01.12.02.27.07.37.1.2.27.41.44.54.19.15.36.57.61.63.18.04.38-.1.54-.14.18-.04.4.01.57-.05.22-.08.13-.34.29-.45.1-.07.29-.01.41-.05.2-.07.34-.26.38-.46.01-.08 0-.15.03-.22.04-.1.11-.16.09-.29-.01-.06-.05-.12-.06-.19-.02-.11 0-.22 0-.34 0-.2.02-.38-.08-.55-.38-.69-1.24-.93-1.97-.79-.18.03-.29.13-.44.21-.17.09-.14.17-.32.22-.08.03-.22.12-.21.22 0 .12 0 .05.01.17-.02.01-.02 0-.03-.03m-7.65.01c.02.07.01.13-.03.19-.05.1-.11.06-.17.13-.05.06-.1.28-.08.36-.16.06 0 .23-.01.35 0 .05-.04.11-.04.16-.01.12.01.27.06.37.1.2.27.41.44.54.19.15.36.57.61.63.18.04.38-.1.54-.14.18-.04.4.01.57-.05.22-.08.13-.34.29-.45.1-.07.29-.01.41-.05.2-.07.34-.26.38-.46.02-.08.01-.14.04-.22.04-.1.11-.16.09-.29-.01-.06-.05-.12-.06-.19-.02-.11 0-.22 0-.34 0-.2.02-.38-.08-.55-.38-.69-1.24-.93-1.97-.79-.18.03-.29.13-.44.21-.17.09-.14.17-.32.22-.08.03-.22.12-.21.22 0 .12 0 .05.01.17-.02.01-.02 0-.03-.03m-7.66.01c.02.07.01.13-.03.19-.05.1-.11.06-.17.13-.05.06-.1.28-.08.36-.16.06 0 .23-.01.35 0 .05-.04.11-.04.16-.01.12.01.27.06.37.1.2.27.41.44.54.19.15.36.57.61.63.18.04.38-.1.54-.14.18-.04.4.01.57-.05.22-.08.13-.34.29-.45.1-.07.29-.01.41-.05.2-.07.34-.26.38-.46.01-.08 0-.15.03-.22.04-.1.11-.16.09-.29-.01-.07-.05-.12-.06-.19-.02-.11 0-.22 0-.34 0-.2.02-.38-.08-.55-.38-.69-1.24-.93-1.97-.79-.18.03-.29.13-.44.21-.17.09-.14.17-.32.22-.08.03-.22.12-.21.22 0 .12 0 .05.01.17-.02.01-.02 0-.03-.03m68.95 7.66c.02.07.01.13-.03.19-.05.1-.11.06-.17.13-.05.06-.1.28-.08.36-.16.06 0 .23-.01.35 0 .05-.04.11-.04.16-.01.12.02.27.07.37.1.2.27.41.43.54.19.15.36.57.61.63.18.05.38-.1.54-.13.18-.04.4.01.57-.05.22-.08.13-.34.29-.45.1-.07.29-.01.41-.05.2-.08.34-.27.37-.47.02-.08.01-.14.04-.22.04-.1.11-.16.09-.29-.01-.06-.05-.12-.06-.19-.02-.11 0-.22 0-.34 0-.2.02-.38-.08-.55-.38-.69-1.24-.93-1.97-.79-.18.03-.29.13-.44.21-.17.09-.14.17-.32.22-.08.03-.22.12-.21.22 0 .12 0 .05.01.17-.02.01-.02 0-.03-.03m-7.65.01c.02.07.01.13-.03.19-.05.1-.11.06-.17.13-.05.06-.1.28-.08.36-.17.06-.01.23-.02.35 0 .05-.04.11-.04.16-.01.12.02.27.07.37.1.2.27.41.44.54.19.15.36.57.61.63.18.04.38-.1.54-.14.18-.04.4.01.57-.05.22-.08.13-.34.29-.45.1-.07.29-.01.41-.05.2-.07.34-.26.38-.46.02-.08.01-.14.04-.22.04-.1.11-.16.09-.29-.01-.06-.05-.12-.06-.19-.02-.11 0-.22 0-.34 0-.2.02-.38-.08-.55-.38-.69-1.24-.93-1.97-.79-.18.03-.29.13-.44.21-.19.09-.15.17-.33.23-.08.03-.22.12-.21.22 0 .12 0 .05.01.17-.02.01-.02 0-.03-.03m-7.65 0c.02.07.01.13-.03.19-.05.1-.11.06-.17.13-.05.06-.1.28-.08.36-.17.06-.01.23-.02.35 0 .05-.04.11-.04.16-.01.12.02.27.07.37.1.2.27.41.44.54.19.15.36.57.61.63.18.04.38-.1.54-.14.18-.04.4.01.57-.05.22-.08.13-.34.29-.45.1-.07.29-.01.41-.05.2-.07.34-.26.38-.46.02-.08.01-.14.04-.22.04-.1.11-.16.09-.29-.01-.06-.05-.12-.06-.19-.02-.11 0-.22 0-.34 0-.2.02-.38-.08-.55-.38-.69-1.24-.93-1.97-.79-.18.03-.29.13-.44.21-.17.09-.14.17-.32.22-.08.03-.22.12-.21.22 0 .12 0 .05.01.17-.02.01-.02 0-.03-.03m-7.66.01c.02.07.01.13-.03.19-.05.1-.11.06-.16.13-.05.06-.1.28-.08.36-.17.06-.01.23-.02.35 0 .05-.04.11-.05.16-.01.12.02.27.07.37.1.2.27.41.44.54.19.16.37.58.61.64.18.04.38-.1.54-.14.18-.04.4.01.57-.05.22-.08.13-.34.29-.45.1-.07.29-.01.41-.05.2-.07.34-.26.38-.46.02-.08.01-.14.04-.22.04-.1.11-.16.09-.29-.01-.06-.05-.12-.06-.19-.02-.11 0-.22 0-.34 0-.2.02-.38-.08-.55-.38-.69-1.24-.93-1.97-.79-.18.03-.29.13-.44.21-.17.09-.14.17-.32.22-.08.03-.22.12-.21.22 0 .12 0 .05.01.17-.02.01-.02 0-.03-.03m-7.66 0c.02.07.01.13-.03.19-.05.1-.11.06-.17.13-.05.06-.1.28-.08.36-.17.06-.01.23-.02.35 0 .05-.04.11-.04.16-.01.12.02.27.07.37.1.2.27.41.44.54.19.15.36.57.61.63.18.04.38-.1.54-.14.18-.04.4.01.57-.05.22-.08.13-.34.29-.45.1-.07.29-.01.41-.05.2-.07.34-.26.38-.46.02-.08.01-.14.04-.22.04-.1.11-.16.09-.29-.01-.06-.05-.12-.06-.19-.02-.11 0-.22 0-.34 0-.2.02-.38-.08-.55-.38-.69-1.24-.93-1.97-.79-.18.03-.29.13-.44.21-.17.09-.14.17-.32.22-.08.03-.22.12-.21.22 0 .12 0 .05.01.17-.02.01-.02 0-.03-.03m-7.66.01c.02.07.01.13-.03.19-.05.1-.11.06-.16.13-.05.06-.1.28-.08.36-.17.06-.01.23-.02.35 0 .05-.04.11-.05.16-.01.12.02.27.07.37.1.2.27.41.44.54.19.15.36.57.61.63.18.05.38-.1.54-.13.18-.04.4.01.57-.05.22-.08.13-.34.29-.45.1-.07.29-.01.41-.05.2-.08.34-.27.37-.47.02-.08.01-.14.04-.22.04-.1.11-.16.09-.29-.01-.06-.05-.12-.06-.19-.02-.11 0-.22 0-.34 0-.2.02-.38-.08-.55-.38-.69-1.24-.93-1.97-.79-.18.03-.29.13-.44.21-.17.09-.14.17-.32.22-.08.03-.22.12-.21.22 0 .12 0 .05.01.17-.02.01-.02 0-.03-.03m-7.65.01c.02.07.01.13-.03.19-.05.1-.11.06-.17.13-.05.06-.1.28-.08.36-.17.06-.01.23-.02.35 0 .05-.04.11-.04.16-.01.12.02.27.07.37.1.2.27.41.44.54.19.15.36.57.61.63.18.04.38-.1.54-.14.18-.04.4.01.57-.05.22-.08.13-.34.29-.45.1-.07.29-.01.41-.05.2-.07.34-.26.38-.46.02-.08.01-.14.04-.22.04-.1.11-.16.09-.29-.01-.06-.05-.12-.06-.19-.02-.11 0-.22 0-.34 0-.2.02-.38-.08-.55-.38-.69-1.24-.93-1.97-.79-.18.03-.29.13-.44.21-.17.09-.14.17-.32.22-.08.03-.22.12-.21.22 0 .12 0 .05.01.17-.02.01-.02 0-.03-.03m-7.66.01c.02.07.01.13-.03.19-.05.1-.11.06-.16.13-.05.06-.1.28-.08.36-.17.06-.01.23-.02.35 0 .05-.04.11-.05.16-.01.12.02.27.07.37.1.2.27.41.44.54.19.15.36.57.61.63.18.04.38-.1.54-.14.18-.04.4.01.57-.05.22-.08.13-.34.29-.45.1-.07.29-.01.41-.05.2-.07.34-.26.38-.46.02-.08.01-.14.04-.22.04-.1.11-.16.09-.29-.01-.06-.05-.12-.06-.19-.02-.11 0-.22 0-.34 0-.2.02-.38-.08-.55-.38-.69-1.24-.93-1.97-.79-.18.03-.29.13-.44.21-.17.09-.14.17-.32.22-.08.03-.22.12-.21.22 0 .12 0 .05.01.17-.02.01-.02 0-.03-.03m-7.66.01c.02.07.01.13-.03.19-.05.1-.11.06-.17.13-.05.06-.09.28-.07.36-.17.06-.01.23-.02.35 0 .05-.04.11-.04.16-.01.12.01.27.06.37.1.2.27.41.44.54.19.16.36.58.61.64.17.04.38-.11.54-.14.18-.04.4.01.57-.05.22-.08.13-.34.29-.45.1-.07.29-.01.41-.05.2-.07.34-.26.38-.46.02-.08.01-.14.04-.22.04-.1.11-.16.09-.29-.01-.06-.05-.12-.06-.19-.02-.11 0-.22 0-.34 0-.2.02-.38-.08-.55-.38-.69-1.24-.93-1.97-.79-.2.03-.3.12-.46.2-.17.09-.14.17-.32.23-.08.02-.21.12-.21.22 0 .12 0 .05.01.17-.02.01-.02 0-.03-.03m-7.64 0c.01.07 0 .13-.03.19-.05.1-.11.06-.17.13-.05.06-.09.28-.07.36-.17.06-.02.23-.02.35 0 .05-.04.11-.04.16-.02.12.01.27.06.37.1.2.27.41.44.54.19.16.36.58.61.64.17.04.38-.11.54-.14.18-.05.4.01.57-.06.22-.08.13-.34.29-.45.1-.07.29-.01.41-.05.19-.07.33-.26.37-.46.02-.08.01-.14.04-.22.04-.1.11-.16.09-.29-.01-.06-.05-.12-.06-.19-.02-.11 0-.22 0-.34 0-.2.02-.38-.08-.55-.38-.68-1.24-.92-1.98-.78-.18.03-.28.12-.44.2-.17.09-.14.17-.32.23-.08.02-.21.12-.21.22 0 .12 0 .05.01.17-.02.01-.02 0-.03-.03"/></pattern><path class="st2" d="M590.8 331.88c3.28-8.12 15.86-39.23 15.86-39.23l-52.85 29.55c-.19.11-15.65 8.67-38.09 18.34 11.26-28.13 21.21-56.74 31.01-94.27 18.67-71.36 28.7-150.02 29.11-153.33 0-.01 3.96-31.71 3.96-31.71S480.25 88.84 470.64 91.5c-35.36-42.82-89.83-68.28-147.05-68.28-57.46 0-112.07 25.61-147.42 68.73-9.9-2.78-109.76-30.72-109.76-30.72l4.11 31.9c.1.81 10.63 81.47 30.23 154.08 9.53 35.33 20.13 63.91 31.17 91.08-23.87-10.1-43.88-19.61-44.13-19.72l-49.03-23.45s11.71 29.53 15.03 37.87c-.63-.25-17.78-6.79-17.78-6.79l16.44 44.22s-.02-.07-.03-.09c1.11 3.23 8.09 22.04 61.1 165.02l7.29 19.67s11.88-3.78 15.38-4.88c2.93 7.93 10.55 28.58 10.55 28.58l21.38-11.02c16.31-8.37 51.31-22.56 79.61-27.14 33.65 46.18 59.94 70.11 61.07 71.15l14.53 13.09 14.29-13.35c1.15-1.08 27.71-26.13 60.63-70.86 31.57 4.22 58.56 16.96 72.18 24.49l20.87 11.53 9.11-22.03s1.11-2.69 2.32-5.64c1.75.6 11.86 4.03 11.86 4.03l7.72-19.67c1.48-3.78 35.29-83.18 67.92-159.66l21.76-51c.01-.04-21.11 9.2-21.19 9.24z"/><path class="st3" d="M558.1 329.87c-.31.17-25.32 14.05-58.42 26.67 14.94-35.51 26.73-67.2 38.57-112.49 18.69-71.42 28.79-151.4 28.89-152.2l2.33-18.64-18.1 5.02s-222.9 61.82-229.44 63.64c-6.53-1.83-245.12-68.61-245.12-68.61l2.41 18.76c.11.8 10.52 80.71 29.99 152.91 11.79 43.7 25.42 77.43 38.81 109.46-31.82-12.57-63.61-27.72-64.02-27.92l-28.83-13.78 11.79 29.71c28.34 71.41 42.76 110.6 61.02 160.22l23.54 63.75 12.56-6.48c18.76-9.64 57.59-25.1 87.61-28.78 34.55 48.2 61.79 73 62.98 74.08l8.54 7.68 8.4-7.85c1.21-1.14 28.95-27.3 62.67-73.87 35.01 3.6 65.07 17.76 80.39 26.22l12.27 6.79 5.37-12.97c13.94-33.7 82.81-203.99 83.52-205.7l13.34-33-31.07 17.38z"/><path class="st2" d="M583.22 338.19c-.59.24-55.75 23.72-100.86 34.94 17.6-40.62 32.95-77.13 47.13-131.31 18.54-70.86 28.58-150.27 28.67-151.07l.69-5.48-5.33 1.48s-229.84 63.75-231.8 64.29c-1.96-.54-234.63-65.67-234.63-65.67l.71 5.52c.09.8 10.43 80.11 29.76 151.74 12.66 46.93 27.54 82.39 41.93 116.69 0 0 2.53 6.05 4.74 11.36-39-9.88-91.89-28.43-92.45-28.62l-7.45-2.61 2.78 7.39c23.18 61.66 35.04 94.79 47.6 129.85l25.47 70.55 3.36-1.05c35.99-11.21 82.52-20.08 111.68-23.81 33.61 48.66 64.89 76.01 65.22 76.29l2.46 2.13 2.41-2.19c.3-.28 30.06-27.43 64.64-75.87 29.98 2 85.77 14.61 106.97 23l3.38 1.34 1.39-3.35c13.91-33.63 85.63-199.01 86.35-200.68l3.69-8.5-8.51 3.64z"/><path class="st4" d="m469.79 383.62 2.88-6.65c19.49-44.91 34.87-80.39 49.69-137.01 15.62-59.68 25.16-125.5 27.76-144.62-10.25 2.83-227.43 63.08-227.43 63.08l-.99.27S106.15 98.35 95.85 95.47c2.69 19.16 12.55 84.94 28.81 145.22 12.53 46.45 27.32 81.69 41.61 115.76l10.33 24.77 82.13 133.28 1.26 1.86c28.2 41.22 54.85 67.12 62.8 74.49 7.72-7.41 33.36-33.12 62.37-74.07l1.17-1.66 83.46-131.5z"/><path class="st3" d="M166.78 302.98c-2.18-3.14-11.68-18.32-11.69-43.51 0-.75.01-1.51.03-2.27a160.914 160.914 0 0 1-10.05-56.08c0-46.72 20.03-89.1 52.35-119.78 32.32-30.68 76.95-49.68 126.16-49.68 49.21 0 93.84 19 126.16 49.68 32.32 30.68 52.35 73.06 52.35 119.78 0 17.32-2.75 34.04-7.86 49.79-.01 32-9.44 61.85-25.74 87.1-.16.2-.99 1.06-3.35 2.33 0 .01-.12.07-.26.25s-.29.43-.3.84c-.01.01-.3 1.92-.93 3.43l.27-.11-.69.96c-30.48 41.76-80.52 68.99-137.08 68.99-74.12-.02-137.05-46.79-159.37-111.72z"/><path class="st5" d="M564.7 352.86c-1.13.49-113.75 49.07-242.79 48.51-113.61-.49-242.43-49.2-243.72-49.68l-27.21-10.4 9.68 26.05c.18.71.18.71 61.07 164.93l4.38 11.82 12.02-3.81c26.82-8.51 98.37-28.32 183.3-28.32 78.91 0 147.83 16.27 176.12 25.88l11.95 4.06 4.65-11.86c1.71-4.34 41.61-98 68.01-159.89l13.08-30.66-30.54 13.37z"/><path class="st2" d="m565.94 368.8-11.49 4.2s-25.39 9.29-25.59 9.35c-1.19.37-10.4 3.33-17.66 9.41-2.5 2.08-5.04 5.1-7.29 8.22.46-1.26.72-2.01.74-2.07l3.43-9.47-9.74 2.6-23.14 6.16v.01c-2.21.48-17.86 3.9-22.6 4.94l-5.33.89-27.08 4.55c-1.15.18-11.62 2.02-17.1 7.53-1.21 1.22-2.26 2.58-3.19 3.99l1.55-9.12-6.84.64-21.89 2.07-.72 5.67c-.56-.7-1.22-1.36-2-1.97-4.16-3.21-11.03-3.13-13.04-3.03-.05 0-32.08.84-32.08.84v.04l-25.91-.17c-1.07.03-9.2.37-14.81 5.68-.86.81-1.59 1.73-2.23 2.71-.12-3.07-.2-4.92-.2-4.92l-.18-4.62s-26.18-2.38-27.14-2.46v-.02l-31.64-4.05 1.42 7.19.36 1.86c-7.22-8.38-18.5-11.35-19.03-11.49-.14-.04-32.56-7.37-32.56-7.37l2.1 8.34 1.56 6.2c-.94-1.67-1.95-3.22-3-4.57-4.73-6.03-8.79-10.56-17.9-13.88-7.96-2.89-24.24-6.72-24.93-6.9l-9.23-2.16.02.06c-8.35-3.62-26.75-9.66-32.99-11.69l-10.35-3.35 3.77 10.2 53.6 144.94s21.06-5.83 22.15-6.12c0 .01.01.04.01.04s22.03-5.27 23.63-5.65c1.12-.2 23.11-4.16 23.11-4.16l-.03-.12c6.11-.94 18.45-2.83 19.67-3.02 1-.15 11.68-1.68 17.57-2.52v.04s22.24-2.29 22.33-2.31c2.37-.15 9.62-.88 13.46-3.95a17.96 17.96 0 0 0 3.46-3.62l.32 6.09 26.23-.85.18-.01c.81-.08 8.05-.94 12.61-5.37.55-.54 1.05-1.11 1.5-1.7l-.26 6.74s20.14.52 21.16.55v.03l23.97.62.01-.01 17.31 1.34 22.01 2.39c.85.09 8.5.77 15.62-3.14.62-.35 1.23-.73 1.81-1.16l-1.81 6.22 22.42 3.81s.02-.08.03-.09c.76.14 16.18 2.95 19.91 3.63l2.47.67c.46.13 11.4 3.05 20.07 2 10.31-1.25 20.82-9.63 25.58-20.38l22.29-51.51h-.09c.4-.9 31.63-73.46 31.63-73.46z"/><path class="st3" d="m367.91 493.41 13.96 1.06 13.22-78.6-17.68 1.68zm57.77-71.73-6.58 28.13 17.45-.46 11.53-41.14-26.76 4.55s-9.79 1.59-14.23 6.05c-6.04 6.07-7.58 17.44-7.58 17.44L388.8 495l17.46 1.78s6.98.87 12.75-2.1c4.19-2.17 6.79-6.58 8.25-10.81 1.45-4.23 5.42-20.93 5.42-20.93H416.2l-3.48 16.7s-.48 3.28-2.91 6.56c-2.42 3.3-7.17 3.04-7.17 3.04l11.42-52.55s1.84-7.11 4.36-10.8c2.98-4.36 7.26-4.21 7.26-4.21zm30.04 29.46 14.97-47.56-15.27 3.28-26.96 92.95 11.96 1.92 12.61-39.71 3.61-.09s2.32.79 2.32 3.14-1.09 4.92-1.09 4.92l-10.67 32.88 14.07 2.63 11.62-34.1s1.83-5.66 1.45-8.44c-.63-4.74-2.9-7.51-2.9-7.51s2.9 0 6.78-3.77c3.88-3.76 3.88-6.57 4.85-9.38.97-2.82 16.54-45.75 16.54-45.75l-20.15 5.04-11.88 38.36s-.88 3.9-2.81 6.71c-1.95 2.81-3.25 3.82-4.41 4.04-2.37.45-4.64.44-4.64.44zm70.01-46.89-13.09 35.22 17.93-.93 25.68-60.59-25.68 9.39s-9.14 2.72-15.99 8.45c-5.48 4.59-11.63 15.03-13.09 18.33-1.45 3.28-7.27 16.43-8.23 20.66-.97 4.22-9.7 27.7-9.7 27.7h20.35l-8.72 23.01s-.98 5.16-4.37 9.39c-3.39 4.22-8.23 4.69-8.23 4.69l11.62-29.59h-12.6l-13.67 36.86s10.21 2.96 17.97 2.03c7.75-.94 17.02-7.41 21.38-17.27 4.36-9.87 18.9-43.69 18.9-43.69l-24.29 1.21 7.41-21.57s5.14-12.37 8.64-16.74c2.29-2.8 7.78-6.56 7.78-6.56zM86.95 377.01l51.92 140.4 15.36-4.29-38.47-113.57s5.81.47 10.66 9.39c4.85 8.92 7.27 15.49 8.73 21.13 1.45 5.64 25.92 81.46 25.92 81.46l15.6-3.62-29.89-99.9s3.88 0 7.75 6.56c3.88 6.58 5.34 12.22 5.34 12.22l23 79.79 15.05-3-19.16-73.97s-4.32-13.03-9.29-19.8c-3.8-5.18-8.26-9.37-15.41-11.82-7.72-2.65-24.41-6.92-24.41-6.92l2.5 7.5s-5.63-6.21-10.66-8.97c-4.56-2.52-34.54-12.59-34.54-12.59zm139.24 121.97 13.14-1.76-11.22-58.41s-2.58-13.08-5.86-18.16c-5.79-8.97-18.08-12.11-18.08-12.11l-24.05-4.95 24.9 98.75 14.86-2.47-9.16-36.91 8.56.09 6.91 35.93zm-17.39-44.95-8.31-36.35s4.95 1.07 7.86 3.89c2.91 2.82 3.77 10.67 3.77 10.67l4.44 21.79h-7.76zm20.67-41.49 16.49 83.98 17.8-1.87s8.12-.26 10.46-2.12c4.89-3.86 4.85-9.39 4.85-9.39l-2.17-65.21-17.15-1.67 6.23 61.73s.42 5.56-2.42 8.46c-2.34 2.37-4.84 1.88-4.84 1.88l-8.82-73.14-20.43-2.65zm56.86 80.49 20.93-.82s6.09-.61 9.49-3.9c3.39-3.28 4.09-9.26 4.09-9.26l.39-11.87-14.06.13.09 11.74s.2 3.89-1.64 5.67c-1.39 1.35-6.19 1.27-6.19 1.27l.08-23.61h21.78l.47-7.19-22.71.23-.01-20.76s-.13-2.98 1.96-4.56c2.2-1.66 6.18-1.19 6.18-1.19v21.36h15.03l1.87-30.6-25.04-.51s-6.85.15-11.15 4.23c-4.96 4.7-4.36 15.5-4.36 15.5l2.8 54.14zm80.44-71.5c-2.73-2.87-9.56-2.5-9.56-2.5l-27.26.63-2.82 72.29 13.71.36 1.77-29.72s4.39-1.48 6.49 1.58c1.39 2.02 1.2 4.4 1.2 4.4l-1.81 23.86 13.5.63 2.37-24.01s.73-4.21-.66-7.35c-1.22-2.76-4.2-3.45-4.2-3.45s1.94 0 4.86-3.29c2.9-3.29 2.9-7.98 2.9-7.98l1.67-16.63c0 .01.92-5.58-2.16-8.82zm-14.05 8.93-.96 18.4s0 2.35-.97 3.76c-.97 1.41-2.25 1.56-2.25 1.56l-5.01-.15 1.45-27.32 3.7-.11s2.01-.13 3.16.7c1.13.83.88 3.16.88 3.16zm2.27 94.28 17.05-4.14-17.46-1.65c-.76-.07-16.97-1.58-25-1.54l-7.83-24.09-2.92 8.06c-.18.49-3.79 10.52-5.67 16.13-9.37-.07-21.86 1.24-22.43 1.3l-18.22 1.96 17.92 3.86c5.39 1.16 16.5 5.05 17.65 9.82-1.41 5.55-5.21 15.34-5.26 15.44l-3.55 9.09s19.57-13.73 22.28-15.62l21.79 15.28s-7.9-22.58-8.57-24.47c1.72-3.13 11.45-7.3 20.22-9.43z"/><path class="st2" d="M330.09 533.61c1.2-4.81 9.32-8.49 15.8-10.71-6.37-.53-14.71-1.15-18.63-1.14l-1.1.02s-3.17-9.29-4.82-14.1c-1.49 4.18-3.68 10.37-4.59 13.26l-.33 1.07-1.12.02c-4.6.06-10.73.39-15.66.68 5.68 2.2 12.29 5.9 13.03 11.44l.04.29-.07.27c-.77 3.37-2.52 8.39-3.86 12.08 4.53-3.19 12.77-8.96 12.77-8.96s8.45 5.93 12.93 9.07c-1.71-4.89-4.5-12.85-4.5-12.85l.11-.44zm-175.82-332.5c0-88.37 75.95-160.27 169.33-160.27 93.36 0 169.31 71.9 169.31 160.27S416.95 361.37 323.6 361.37c-93.38 0-169.33-71.89-169.33-160.26z"/><path class="st3" d="m220.77 93.61.36-.29c2.08-1.68 3.89-2.02 5.19-.41 1.21 1.5.26 3.31-1.64 4.84l-.35.28-3.56-4.42zm.61 12.43 7.22-5.82c4.59-3.7 6.15-8.49 3.43-11.88-3.37-4.19-8.76-2.62-14.02 1.61l-5.81 4.67 9.18 11.42zm41.92-32.57-.45-4.64.25-.1c.35.52.72 1.06 1.15 1.56l1.77 2.07-2.72 1.11zm.1 3.71 5.12-2.09 1.31 1.44 7.17-2.92-12.18-10.86-7.49 3.06-.95 16.2 7.17-2.92-.15-1.91zm35.3-23.42 7.27-.81 1.12 9.88 6.1-.69.53 4.67-13.37 1.51-1.65-14.56zm41.69-.84 7.24 1.05-1.43 9.84 6.08.88-.68 4.66-13.32-1.93 2.11-14.5zm44.2 21.19 3-3.56.25.1c-.12.62-.26 1.27-.31 1.92l-.26 2.71-2.68-1.17zM382 76.78l5.07 2.2-.12 1.94 7.1 3.1-.73-16.3-7.41-3.23-12.27 10.63 7.1 3.09 1.26-1.43zm36.44 16.86.16.4c.54 1.41 1.37 2.87 2.66 3.95.56.46 1.58 1.03 2 .52.42-.51-.27-1.17-.73-1.67l-1.01-1.08c-1.97-2.1-3.04-4.57-1.58-6.35 2.21-2.68 6.81-1.4 10.18 1.39 1.77 1.46 3.14 3.12 4.1 5.05l-3.91 1.64c-.57-1.28-1.35-2.56-2.56-3.56-.5-.41-1.32-.88-1.71-.41-.35.43.3 1.07.68 1.5l1.1 1.26c2.07 2.36 3.03 4.72 1.45 6.64-2.23 2.69-6.71 1.23-10.07-1.54-1.94-1.62-3.89-3.88-5.11-5.96l4.35-1.78zm47.05 66.5c-.98-1.01-3.3-2.37-3.3-2.37-.84-.33-1.01-1.11-1.01-1.11-.46-2.86-1.08-3.9-1.08-3.9-14.57-18.81-33.23-34.45-54.67-45.68-3.81-1.73-7.27-1.9-7.27-1.9-.77.03-1.15-.59-1.15-.59-1.26-1.79-5.05-3.73-6.5-4.41-19.81-8.03-41.54-12.49-64.35-12.49a172 172 0 0 0-20.42 1.21l8.81-11.82c-35.19-1.05-60.43 26.43-60.43 26.43l.01.03c-8.45 3.94-16.53 8.51-24.12 13.72l.02-.04c-18.35 6.58-23.65 21.37-23.65 21.37-4.65 3.88-13.84 16.12-13.84 16.12-2.62 1.51-5.37 4.03-6.21 4.81-4.23 4.39-11.96 14.3-16.08 31.36-.11.28-.24.56-.35.84-.17.96-.34 2.03-.5 3.1-.4 2.02-.75 4.11-1.03 6.31l.15-.24c-.06.46-.09.73-.09.73-.44.29-3.07 10.82-3.07 10.82-.44 1.32-5.22 15.73-5.22 15.73l-.03-.03c0 .03-.02.06-.02.09-12.6 44.06 4.16 70.76 7.01 74.86 22.26 64.82 85.07 111.52 159.07 111.52 56.45 0 106.39-27.18 136.8-68.85h-.01c.86-1.36 1.29-4.13 1.29-4.13.04-.91.73-1.33.73-1.33 2.34-1.26 3.15-2.11 3.26-2.25 16.26-25.17 25.67-54.96 25.67-86.9-.02-33.69-10.49-65-28.42-91.01z"/><path class="st2" d="M255.76 128.21c.44-.46.83-.88 1.19-1.25.56-.59.78-.74.84-.7.07-.06.12-.1.12-.1.16-8.4 2.04-15.12 2.04-15.12 15.26-21.32 40.42-26.95 40.42-26.95 3.12-.9 1.1.48 1.1.48-15.84 17.74-14.18 32.41-14.18 32.41l15.11 55.17s-12.25-4.32-21.71-23.7c-4.34 38.66 32.11 70.01 32.11 70.01 1.59 1.36-.91-.11-.91-.11-9.12-4.56-19.64-14.17-22.51-16.87.76 3 18.51 92.21 18.56 92.49.08.43.34 1.28.51 1.85l6.16-15.29 5.07 45.06c-23.12 21.51-47.74 12.99-49.27 12.43.61.97 1.07 1.66 1.08 1.66 0 0 19.98 39.27 101.43 35.1 0 0 1.97 0 1.67.24.02.07-.08.16-.45.3-1.53.54-3.94.93-3.94.93-98.31 26.27-149.26-57.52-151.48-61.26-.62-.87-5.39-7.58-8.05-14.35-.09-.2-.21-.86.26-.36 0 0 10.44 10.88 39.98 13.57.21-.03.33-.04.33-.04-22.82-25.45-32.53-43.89-33.96-46.71h-.02s-2.75-4.13-6-15.82c0 0 .08-.59.36 0 1.11 2.32 8.68 13.47 17.85 15.96.01 0 .03-.01.03-.01-7.8-12.58-12.65-32.48-13.27-35.4 10.62 14.87 29.46 15.95 29.46 15.95-.03-.05-.08-.09-.12-.14.04.07.07.11.07.11-30.97-30.91-24.29-64.54-11.74-88.82 7.44-14.31 16.89-25.39 21.86-30.72z"/><path class="st4" d="m348.43 332.71-20.31 21.36c.01-.01.01-.01.02-.01l25.09-19.25-12.98-44.77 5.67-53.84-9.91 51.4 12.42 45.11zm-5.12-108.95c.36-.18.8-.42 1.29-.71 1.51-.89 3.52-2.31 5.53-4.39 4.02-4.17 8.04-10.99 8.05-21.71 0-4.81-.81-10.42-2.8-16.88-.42 7.53-2.39 35.45-12.07 43.69zm9.43-91.5c7.06-10.7 18.73-11.62 23.66-11.67-4.26-1.24-8.22-1.71-11.75-1.71-4.99 0-9.13.92-12.02 1.83-2.08.66-3.51 1.32-4.13 1.63 1.82 2.55 3.61 7.96 4.24 9.92zm-8.97 22.48c.17.02.3.17.3.34.02 1.01.04 2.01.04 3.02-.01 23.09-6.16 48.37-8.47 57.05a133.438 133.438 0 0 0 11.22-53.55c0-8.48-.82-15.46-1.63-20.31-.42-2.52-.85-4.47-1.16-5.76-2.24 17.33-8.83 25.19-8.87 25.23-.07.09-.19.14-.31.12a.379.379 0 0 1-.28-.18c-7.23-13.34-16.74-23.22-24.45-29.76-5.87-4.98-10.67-8.01-12.63-9.17 20.62 44.84 26.68 79.42 28.22 90.83.05-1.31.07-2.65.07-4.01 0-13.65-2.32-29.17-4.66-41.28-2.33-12.11-4.65-20.78-4.66-20.8-.04-.15.02-.3.15-.39.12-.09.29-.08.41.01 9.29 7.22 15.78 27.67 16.94 31.47 1.73-2.14 4.01-7.5 5.84-12.42 1.99-5.33 3.52-10.19 3.53-10.2.04-.15.18-.25.33-.25.04 0 .06.01.07.01zm-8.83 5.8.31-.17-.31.17z"/><path class="st4" d="M170.17 247.78c0 21.31 3.69 43.6 22.05 72.09 17.33 36.5 49.28 56.15 64.17 63.69 4.96 2.52 8.01 3.67 8.04 3.68 23.67 11.15 45.92 15.26 65.87 15.26 41.77 0 73.44-18.01 86.66-27.01 4.4-3 6.74-4.99 6.75-4.99l.23.27-.22-.28c.87-.72 1.54-1.29 2.02-1.72-.26.14-.53.3-.79.46-.94.56-1.81 1.13-1.83 1.14-32.46 19.04-62.38 24.86-86.8 24.86-38.24 0-63-14.26-63.02-14.27-81.12-42.55-82.3-116.28-82.3-116.33 0-.16.11-.31.27-.35.16-.04.33.03.4.18 10.47 20.28 23.15 27.19 28.81 29.39.82.32 1.48.53 1.97.68-23.6-29.71-30.34-54.73-30.34-73.59 0-24.98 11.82-39.13 11.85-39.16.1-.12.28-.16.42-.09.14.07.22.23.19.39-1.69 8.82-2.34 16.6-2.34 23.33 0 10.96 1.71 19.16 3.42 24.62.94 2.98 1.86 5.14 2.51 6.48a147.38 147.38 0 0 1-1.04-17.35c0-55.62 32.6-89.87 39.47-96.47-5.15 2.15-11.41 7.69-16.5 12.9-5.65 5.76-9.9 11.12-9.91 11.13-.09.12-.25.16-.39.11a.368.368 0 0 1-.24-.34c.05-4.41 2.58-9.96 3.94-12.65-4.19 3.81-7.67 9.78-10.15 15-2.74 5.78-4.26 10.62-4.26 10.63l-.07.13c-8.59 9.74-14.23 19.91-17.72 27.65-3.49 7.74-4.83 13.01-4.83 13.02-.28 1.18-.46 1.76-.61 2.06-.07.08-.07.24-.41.29-.51-.14-.36-.38-.43-.48-.02-.14-.02-.3-.02-.48 0-.69.09-1.65.09-1.63.23-10.49 4.59-22.3 6.36-26.67-12.36 13.29-15.39 31.32-15.39 45.73 0 13.63 2.7 23.97 2.7 23.99l.01.08c.02 8.48 1.69 18.96 3.35 27.31 1.65 8.35 3.3 14.56 3.3 14.55.55 1.62.76 2.37.76 2.77 0 .07 0 .14-.04.24-.03.1-.2.25-.36.25-.47-.11-.42-.3-.64-.53-.16-.24-.34-.54-.5-.84-.33-.58-.62-1.15-.62-1.16-8.69-13.3-12.88-35.25-13.82-40.63-.02.91-.02 1.78-.02 2.66z"/><path class="st5" d="M443.87 153.9c-.01-.01-39.52-53.1-113.85-53.11-.1-.01-.5-.04-.95-.04-.36 0-.76.02-1.09.08-.3.07-.73.13-.79.67.05.45.35.63.84.95-.01-.01 10.24 7.87 16.65 15.89l.18.22.25-.12c.01 0 1.77-.83 4.86-1.67 3.09-.84 7.49-1.68 12.72-1.68 6.89 0 15.22 1.46 23.88 6.33-3.63 1.77-22.25 11.19-26.21 21.79l-.08.22.18.16c.04.04 18.73 17.05 57.36 17.05 6.15 0 12.8-.43 19.97-1.43 0 0 1.65-.19 3.33-.69 1.64-.52 3.46-1.29 3.52-2.89-.01-.56-.26-1.13-.77-1.73zm-79.99 74.41a.35.35 0 0 0-.5.01.37.37 0 0 0 0 .5s.46.46 1.17 1.43c2.14 2.93 6.47 10.38 6.47 23.02 0 8.91-2.16 20.43-8.78 34.75-.08-2.4-.35-7.34-1.32-12.5-1.37-7.2-4.02-14.91-9.68-16.66a.358.358 0 0 0-.3.05.42.42 0 0 0-.16.25l-3.49 31.41.01.13 12.63 46.86-24.95 20.06c-.1.08-.15.22-.12.34.02.13.12.23.25.27.02.01 9.76 3.09 26.19 3.09 8.76 0 19.41-.88 31.5-3.56.05-.02 3.04-.74 4.02-3.64.01-.05 2.73-12.82 2.73-31.15-.01-27.15-5.98-66.53-35.67-94.66z"/><path class="st5" d="M404.92 354.83c-.46-.37-.75-.99-.74-1.86 0-.4.06-.84.18-1.37 0-.01.96-3.72 1.93-10.13.96-6.41 1.93-15.48 1.93-26.15 0-28.29-6.79-67.75-38.26-98.38-.01-.01-.25-.17-.51-.38-.25-.25-.54-.38-.61-.86-.01-.16.12-.36.27-.42.14-.07.26-.08.41-.08.31 0 .74.07 1.42.25.02.01 8.41 2.55 14.29 9.15-.18-1.54-.62-4.57-1.7-8.32-1.57-5.5-4.49-12.54-9.83-18.68-.01 0-.34-.35-.68-.74-.33-.44-.66-.69-.74-1.16 0-.07.02-.18.11-.28.1-.1.22-.12.29-.12.41.06.7.31 1.62.96 1.94.94 81.02 39.24 83.78 116.54 0 .01.05.45.05 1.15-.01 1.89-.3 5.66-2.81 7.8-.77.96-19.52 24.29-47.1 33.24-.02.01-.84.33-1.77.33-.5-.02-1.07-.12-1.53-.49zm-35.38-139.17z"/><path class="st5" d="M464.1 298.05c-1.54-63.78-61.69-107.31-91.69-125.06-10-5.92-16.62-8.97-16.63-8.97l-1.44-.66 1.59-.01h.19c10.7.01 17.25 6.46 19.2 8.69 0-3.91-1.56-8.21-1.57-8.22l-.26-.73.73.27c8.53 3.25 19.54 4.33 30.32 4.33 10.43 0 20.67-1.01 28.29-2.02 7.62-1.01 12.62-2.01 12.67-2.02.39-.04.76-.05 1.1-.05 4.36-.01 5.75 2.44 5.94 2.85 10.2 11.38 22.81 37.73 24.92 69.39.27 3.97.39 7.83.39 11.55-.01 23.8-4.92 42.09-8.75 49.83-1.32 2.56-2.35 4.03-3.52 4.12-1.09-.08-1.41-1.29-1.48-3.29"/><path class="st3" d="M290.81 91.86c.06-.06.09-.12.15-.19 0 0-.02.01-.05.01-.91.25-17.15 5.05-21.96 29.83 0 0-.03.45.23.02 1.46-2.4 6.55-10.1 11.22-7.81 0 0 .01-.19.05-.5.26-2.1 1.79-10.71 10.36-21.36zm-12.45 224c-3.52-7.07-26.08-56.33-26.08-56.33-7.02 2.22-15.74-3.48-15.74-3.48.01 0 .01.01.01.02 11.09 29.47 37.23 55.26 41.4 59.94l.06.06c.71.78.7.5.7.5-.07-.15-.19-.4-.35-.71zm-22.38-160.48c-20.36 46.55 25.47 65.74 26.07 65.98h.02l-2.43-10.72-1.38-6.13c-1.14-.37-2.22-.81-3.26-1.26-.36-.16-.69-.32-1.04-.48-.43-.21-.86-.41-1.26-.63-20.03-10.64-18.08-36.13-16.85-44.42.01-.06.01-.11.02-.16.04-.25.08-.48.11-.7.13-.78.23-1.31.29-1.58.03-.14.05-.22.05-.22v-.04c.04-.6-.22.11-.34.36z"/><path class="st4" d="m286.15 286.41-3.3-58.49 19.65 65.22c-.01-.01-6.44-15.42-16.35-6.73zm16.25-114.26-15.11-55.17c.01.29-.05.41.04 1.27l4.36 34.97s.12.59.12 1.28c-.02 1.97-1.24 4.53-10.39-5.27-.48-.48-.62-.66-.73-.78 9.46 19.38 21.71 23.7 21.71 23.7zm-35.98 9.9c-1.22-2.88-1.72-5.51-1.72-7.86.01-8.5 6.26-13.28 6.29-13.31l.18-.14c0 .09-.3-5.4.2-14.16-5.02 7.4-15.69 24.95-2.93 38.66-.21-.29-.39-.54-.56-.8-.65-.95-1.1-1.71-1.46-2.39z"/><path class="st3" d="M279.75 189.16c-2.16-3.79-7.69-15.91-8.56-28.17-.01-.08-.02-.17-.02-.26l-.18.14c-.03.03-6.28 4.81-6.29 13.31 0 2.35.5 4.98 1.72 7.86.35.68.8 1.45 1.46 2.4.17.25.35.51.56.8.23.3.51.59.8.9 2.14 2.34 5.78 4.76 11.73 5.02.01 0-.48-.69-1.22-2z"/><path class="st4" d="M298.07 293.84s-9.67-2.47-9.05 17.67c.01-.03-.01.02 0 0 .05-.46.23-1.08.46-1.69 3.04-6.65 5.61-9.32 8.08-9.38 2.03.02 3.57 1.88 4.85 4.46 1.28 2.6 2.29 6.03 3.08 9.45.64 2.79 1.14 5.57 1.5 7.9.15 1.44.28 3.22.38 5.41.01.12.02.19.02.19 0-.01-.01-.02-.01-.03v.08c.37-2.35 4.71-30.17-9.31-34.06z"/><path class="st3" d="M307.4 327.86s-.01-.07-.02-.19c-.1-2.19-.23-3.98-.38-5.41-.36-2.32-.86-5.11-1.5-7.9-.79-3.42-1.8-6.85-3.08-9.45-1.28-2.58-2.82-4.44-4.85-4.46-2.47.06-5.04 2.73-8.08 9.38-.23.61-.42 1.23-.46 1.69-.01.02-.01.03 0 0l4.8 10.53s2.74-28.23 13.55 5.74c.01.04.01.09.01.12v-.08c0 .01.01.02.01.03z"/></svg>