<svg xmlns="http://www.w3.org/2000/svg" viewBox="0 0 400 400" style="enable-background:new 0 0 400 400" xml:space="preserve"><path d="m249.3 189 .4-33.7c0-15.8-16.5-18.5-28.7-18.3 8.2-2.7 18-7.3 25.1-15 7.4-6.9 12.8-16.6 11.8-30.2-1.5-22.9-30.2-34.3-77.6-29.7-.8.1-1.6.2-2.3.2-2.2-16.9-5.7-33.3-11-48.4l-2.3 2.3c-6.3 19.6-10.1 35.2-12.3 49.6-28.3 4.9-48.1 11.4-48.1 11.4l-2.3 2.3s22.9-2.1 49-1.7c-2.9 29.7.1 57.8 0 111.1-42.1-1.2-79.1 5.8-88.2 17.1-3 2.4-4.6 5.1-4.5 8 .5 12.9 38.8 24.7 92.6 29.3l2.3 73.2 2.3-2.3 3.8-49.6c0-.8.1-1.5.3-2.1 1.1.2 2.2 1.6 2.2 4.1l1.7 65.3 2.3-2.3 4-53.2c0-1.2.1-2.2.3-2.9 1.1.2 2.2 1.9 2.1 4.9l1.9 68.1 2.3-2.3 3.2-99.1c6.2.2 12.5.3 18.9.3 6.8 0 13.5-.1 20.1-.3l3.3 103.3 2.3-2.3L227 292c0-1.1.1-2 .3-2.7 1.1.2 2 1.8 2 4.6l2.8 75.9 2.3-2.3 2.8-65.5c0-.9.2-1.7.4-2.4 1.3 0 2.7 1.6 2.8 4.7l2.3 86.9 2.3-2.3 3.4-145.4c46-4 81-13.3 89.6-24 2.9-2.4 4.4-4.9 4.4-7.5-.3-14.4-42.9-25.3-93.1-23m-98.8 39c-36.9-3.6-61.8-11-61.8-20.5 0-.7.2-1.4.6-2 8.6-6.1 35.2-9.9 61.7-13.9 0 10.4-.2 21.7-.5 34.2v2.2zm75.2-127c1.4 10.4-1.6 18.3-7 24.3-9.6 8.7-24.7 12.7-37 14.5.2-19.7-.1-40.2-1.8-60.2 23.7 2.5 44 8.5 45.8 21.4m-7 129c-5.8.2-11.7.3-17.7.3-7.1 0-14.1-.1-20.8-.4l.3-8.4c-.6-21.3.7-48 1.1-76.6 17.3 2 38.1 6.9 37.8 19.1l-.7 66zm91.8-16.4c-8.6 6.8-31.5 12-61.6 14.7l.4-36.3c34.5 4.5 62.6 9.6 62.6 17.8 0 1.3-.5 2.6-1.4 3.8" style="fill:#919798"/><path d="M342.7 211.8c-.6-14.2-43.2-25.1-93.4-22.7l.4-33.7c-.1-20.9-28.6-18.8-38.3-17.6 11.2-2 48.9-11.4 46.5-45.9-1.6-22.9-30.2-34.3-77.6-29.7-.8.1-1.6.2-2.3.2-2.2-16.9-5.7-33.3-11-48.4-6.6 20.5-10.4 36.6-12.6 51.6-29.4 4.9-50.2 11.7-50.2 11.7s22.9-2.1 49-1.7c-2.9 30.1.1 58.7 0 113.5-49.9-1.8-93.1 8-92.6 22.7.4 12.9 38.8 24.8 92.6 29.3l2.3 73.1 3.8-49.6c.1-6.2 4.8-5.6 4.8-.3l1.7 65.3 4-53.2c-.1-7.2 5-6.8 4.8-.4l1.9 68.1 3.3-101.5c6.9.2 14 .4 21.2.4 6.8 0 13.5-.1 20.1-.3l3.3 103.3 2.8-54.1c0-6.9 4.7-6.5 4.7-.4l2.8 75.9 2.8-65.5c.2-6.4 5.4-6.2 5.5 0l2.3 86.9 3.5-147.5v-.1c54.4-4.6 93.9-16.5 93.9-29.4M228 98.7c3.9 28.6-25.3 38-46.3 41.1.2-20.5-.1-41.9-2-62.8 24.7 2.3 46.5 8.3 48.3 21.7M88.7 207.5c0-8.7 32.3-13.4 64.6-18.2 0 10.4-.2 21.7-.5 34.2l.1 4.8c-38.2-3.5-64.2-11.1-64.2-20.8m91.5 22.4.3-8.4c-.7-21.9.8-49.6 1.2-79.1 17.7 1.8 40.4 6.6 40.1 19.3l-.6 68.2c-6.5.2-13.2.3-20.1.3-7.2.1-14.2 0-20.9-.3m68.7-1.6.5-38.9c35.6 4.6 64.9 9.7 64.9 18.2-.1 9.6-26.8 17.2-65.4 20.7" style="fill:#fff"/></svg>